<svg xmlns="http://www.w3.org/2000/svg" width="575" height="433.67" viewBox="0 0 575 433.67">
  <g id="graduation" transform="translate(0 0.001)">
    <g id="GRASS" transform="translate(0 359.748)">
      <path id="路径_2" data-name="路径 2" d="M1089.529,2935.273l-180.35.321c-22.106.153-45.589.229-69.943.229-59.28,0-113.466-.489-154.909-1.3H517.5c0-29.464,32.432-16.522,40.984-11.321,9.944,6.043-2.861-26.129,17.44-26.129,17.379,0,27.323,8.735,27.323,8.735s.474-16.981,16.95-17.226,26.94,14.273,39.944,26.221a76.234,76.234,0,0,0,17.93,11.825c42.177-.887,98.841-1.438,161.166-1.438,29.525,0,57.766.122,83.819.352h0c46.292,0,88.684-24.34,100.708-30.443,29.709-15.115,15.635,20.912,15.635,20.912s22.9-9.637,39.01-9.561C1101.156,2906.543,1089.529,2935.273,1089.529,2935.273Z" transform="translate(-517.5 -2861.903)" fill="#d0f0e4"/>
      <path id="路径_3" data-name="路径 3" d="M3408.861,2884.872a26.088,26.088,0,0,1-13-4.178,52.54,52.54,0,0,1-10.579-8.78,80.854,80.854,0,0,1-9.765-12.631l-.424-.713.829.02a50.63,50.63,0,0,1,15.91,2.907,73.438,73.438,0,0,1-1.579-14.465,158.989,158.989,0,0,1,.559-17.359l.063-.633.581.259a38.243,38.243,0,0,1,16.643,14.21,53.468,53.468,0,0,1,7.308,18.179,78.02,78.02,0,0,1,1.438,22.312l-.918-.1a77.093,77.093,0,0,0-1.429-22.043c-2.294-10.611-8.12-24.612-22.834-31.451-.3,3.518-1.53,20.582,1.209,31.485,6.425,2.515,10.451,5.9,10.643,8.108.038.459-.051,1.552-1.73,1.885a6.248,6.248,0,0,1-5.673-1.53c-1.706-1.548-3.047-4.152-4.017-7.787a49.355,49.355,0,0,0-15.349-3.036,81.813,81.813,0,0,0,9.205,11.761c5.394,5.676,13.751,12.479,22.929,12.658ZM3393.17,2863c.835,2.888,1.989,5.253,3.56,6.679a5.306,5.306,0,0,0,4.877,1.312c1.052-.21,1.01-.716.993-.906-.117-1.349-2.706-3.909-7.432-6.192Q3394.2,2863.422,3393.17,2863Z" transform="translate(-2937.932 -2811.472)" fill="#ffcf2d"/>
      <path id="路径_4" data-name="路径 4" d="M3594.208,3048.344l-.918-.083a31.672,31.672,0,0,1,3.191-10.28,28.549,28.549,0,0,1,17.134-14.731c2.958-.942,4.73-.858,5.417.259s.153,2.989-1.66,5.936a73.113,73.113,0,0,1-6.094,8.149c-4.59,5.474-9.539,10.521-9.587,10.571l-.655-.642c.049-.051,4.978-5.076,9.542-10.522,8.159-9.737,8.083-12.342,7.673-13s-1.962-.626-4.356.136a27.649,27.649,0,0,0-16.58,14.236A31.344,31.344,0,0,0,3594.208,3048.344Z" transform="translate(-3122.75 -2975.423)" fill="#ffcf2d"/>
      <path id="路径_5" data-name="路径 5" d="M721.345,2785.682a98.38,98.38,0,0,1-25.366-27.656,73.35,73.35,0,0,1-8.414-19.868l-.165-.653.646.193a87.069,87.069,0,0,1,12.909,5.346c6.229,3.172,14.611,8.433,19.808,15.707.338-2.514,1.349-9.485,3.118-17.287,2.972-13.1,6.554-22.149,10.643-26.891l.321-.373.281.4c.055.08,1.377,2.016,2.778,7.432,1.244,4.805,2.789,13.378,3.191,27.167,2.673-4.415,12.535-20.206,20.292-25.937l.647-.477-.037.8c-.012.257-1.224,25.187-7.072,38.958a18.3,18.3,0,0,1,4.366-1.989c4.176-1.239,7.782-.306,10.427,2.677a7.122,7.122,0,0,1,1.836,5.416c-.445,6.119-7.542,12.177-7.845,12.433l-.493-.584c.07-.06,7.153-6.107,7.576-11.905a6.386,6.386,0,0,0-1.649-4.851c-2.465-2.786-5.7-3.614-9.616-2.457a17.87,17.87,0,0,0-5.267,2.642l-1.261.979.679-1.443c5.63-11.979,7.232-34.48,7.505-39.076-8.665,6.939-19.992,26.139-20.108,26.337l-.681,1.158-.032-1.343c-.561-24.018-4.551-33.061-5.61-35.051-9.332,11.493-13.323,44.011-13.363,44.343l-.124,1.028-.574-.862c-5.048-7.565-13.707-13.026-20.087-16.275a89.224,89.224,0,0,0-12.127-5.081c3.886,14.75,12.616,26.5,19.308,33.809a92.278,92.278,0,0,0,13.99,12.612Z" transform="translate(-661.408 -2714.2)" fill="#fe5244"/>
      <path id="路径_6" data-name="路径 6" d="M979.262,2794.16l-.722-.254c2.731-7.787,2.506-68.484,2.5-69.1h.765C981.823,2727.312,982.036,2786.249,979.262,2794.16Z" transform="translate(-908.009 -2723.187)" fill="#fe5244"/>
      <path id="路径_7" data-name="路径 7" d="M979.54,2844.99l-.6-.474c10.007-12.719,28.216-59.357,28.4-59.825l.713.279C1007.863,2785.438,989.617,2832.18,979.54,2844.99Z" transform="translate(-908.348 -2773.906)" fill="#fe5244"/>
      <path id="路径_8" data-name="路径 8" d="M1078.67,3032.547c-.315,0-.861-.134-1.129-.985-1.057-3.424,8.1-8.282,9.763-8.9l.266.716a23.342,23.342,0,0,0-3.365,1.754l.306.084c-.54,1.976-3.844,7.294-5.813,7.332Zm4.931-7.046c-2.818,1.784-5.822,4.234-5.328,5.833.142.458.326.451.406.448C1079.908,3031.758,1082.752,3027.69,1083.6,3025.5Z" transform="translate(-991.793 -2975.472)" fill="#fe5244"/>
      <path id="路径_9" data-name="路径 9" d="M905.514,2992.256h-.168a1.215,1.215,0,0,1-.9-.478c-1.022-1.253-.918-5.2-.612-8.633v-.014h.009c.243-2.636.612-4.954.7-5.481l.756.125c-.2,1.2-.473,3.159-.669,5.234.113.214.245.459.392.72,1.683,3.067,3.237,6.19,2.295,7.718A1.989,1.989,0,0,1,905.514,2992.256Zm-1.005-7.87c-.222,3.038-.2,6.006.528,6.9a.437.437,0,0,0,.34.2c.658.026,1.071-.123,1.282-.459C907.411,2989.82,905.62,2986.424,904.509,2984.386Z" transform="translate(-844.551 -2937.347)" fill="#fe5244"/>
    </g>
    <g id="_2_CHARACTER" data-name="2 CHARACTER" transform="translate(324.388 -0.001)">
      <g id="LEGS" transform="translate(41.162 235.099)">
        <g id="LEFT_LEG" data-name="LEFT LEG" transform="translate(0 63.217)">
          <path id="路径_10" data-name="路径 10" d="M3040.963,2850.1c-10.4,5.094-9.424,14.87-9.516,21.433-.107,6.991-13.447,10.648-13.447,10.648,3.549-11.183,1.025-22.7,1.025-22.7Z" transform="translate(-3001.02 -2767.877)" fill="#a0505a"/>
          <path id="路径_11" data-name="路径 11" d="M3011.081,2870.68l-2.371,1.285-4.972-11.366a1.576,1.576,0,0,0-1.438-.948,1.747,1.747,0,0,0-.612.122,1.546,1.546,0,0,0-.933,1.239l-2.187,16.476-28.776,15.665c-.856-2.05,4.483-7.19,7.313-16.139,0,0,13.355-3.656,13.447-10.647.092-6.563-.872-16.354,9.515-21.433l2.188-.934C3014.186,2849.492,3011.081,2870.68,3011.081,2870.68Z" transform="translate(-2960.107 -2762.709)" fill="#ffcf2d"/>
          <path id="路径_12" data-name="路径 12" d="M2951.842,2316.4v80.713l-23.8,10.326-17.838-81.034C2918.185,2326.711,2931.495,2325.028,2951.842,2316.4Z" transform="translate(-2909.71 -2315.823)" fill="#fff"/>
          <path id="路径_13" data-name="路径 13" d="M2925.052,2404.782,2907,2322.811l.494.019c7.513.288,20.806-1.208,41.478-9.974l.532-.225v81.539Zm-17.085-81.172,17.634,80.1,23.147-10.042v-79.885c-20.057,8.437-33.182,10.033-40.78,9.826Z" transform="translate(-2907 -2312.63)" fill="#9a3b82"/>
          <rect id="矩形_3" data-name="矩形 3" width="0.765" height="79.277" transform="matrix(0.998, -0.059, 0.059, 0.998, 24.27, 7.664)" fill="#9a3b82"/>
          <path id="路径_14" data-name="路径 14" d="M2951.842,2316.4v21.127l-40.51-5.859-1.132-5.262C2918.186,2326.711,2931.5,2325.028,2951.842,2316.4Z" transform="translate(-2909.71 -2315.823)" fill="#9a3b82"/>
        </g>
        <g id="RIGHT_LEG" data-name="RIGHT LEG" transform="translate(37.11)">
          <path id="路径_15" data-name="路径 15" d="M3794.571,1908.426l-15.39,3.243a1.491,1.491,0,0,1-1.805-1.453,1.45,1.45,0,0,1,.474-1.086l8.567-8.031-1.9-1.7s-19.888,3.9-21.019,16.308l1.514,1.652c7.817,7.68,16.246,3.717,22.136,1.729,5.63-1.9,12.346,6.838,13.677,8.643h.061c8.873-.291,15.16,2.861,16.706,1.438Z" transform="translate(-3669.582 -1899.4)" fill="#ffcf2d"/>
          <path id="路径_16" data-name="路径 16" d="M3773.5,2016.8c7.817,7.68,16.247,3.717,22.137,1.729,6.272-2.111,13.753,8.643,13.753,8.643-11.106.352-20.576,6.242-20.576,6.242Z" transform="translate(-3678.052 -1998.84)" fill="#a0505a"/>
          <path id="路径_17" data-name="路径 17" d="M3152.3,2054.682s3.87,26.144,33.564,25.655,76.46-55.716,76.46-55.716l-16.446-18.021Z" transform="translate(-3151.884 -1990.2)" fill="#fff"/>
          <path id="路径_18" data-name="路径 18" d="M3182.748,2078.1a36.5,36.5,0,0,1-17.134-3.853,29.536,29.536,0,0,1-10.277-8.957,33.611,33.611,0,0,1-5.716-13.178l-.041-.271,94.083-48.343,16.87,18.487-.218.257a325.81,325.81,0,0,1-27.131,27.711,175.7,175.7,0,0,1-24.946,19.172c-9.526,5.837-17.826,8.854-24.668,8.968C3183.3,2078.1,3183.019,2078.1,3182.748,2078.1Zm-32.326-25.833a33.258,33.258,0,0,0,5.55,12.6c4.217,5.821,12.427,12.716,27.583,12.458,6.7-.11,14.871-3.088,24.277-8.853a174.628,174.628,0,0,0,24.832-19.085,326.575,326.575,0,0,0,26.847-27.384l-16.021-17.559Z" transform="translate(-3149.581 -1987.575)" fill="#9a3b82"/>
          <path id="路径_19" data-name="路径 19" d="M3281.086,2115.78c-6.2,0-11.006-1.342-14.29-3.995a14.28,14.28,0,0,1-5.065-9.485l.756-.107c1.236,8.689,7.733,13,19.3,12.812,20.763-.333,50.178-27.627,65.865-43.866l.551.532c-15.769,16.323-45.365,43.76-66.4,44.1C3281.563,2115.779,3281.323,2115.78,3281.086,2115.78Z" transform="translate(-3244.573 -2044.867)" fill="#9a3b82"/>
        </g>
      </g>
      <g id="DRESS" transform="translate(31.784 19.334)">
        <path id="路径_20" data-name="路径 20" d="M3022.21,667.836c-2.708-1.025-9.148,2.494-14,8.613-5.217,6.563-7.328,13.539-5.033,15.359L2929.7,652.736a4.689,4.689,0,0,0-6.747,5.308l22.243,84.262c-75.344,48.893-99.5,34.237-99.5,34.237v-276.9c0,.015,0,.015.015.031.643,1.637,7.542.49,15.42-2.585,7.251-2.815,12.79-6.272,13.141-8.077l.015-.015v87.246a15.11,15.11,0,0,0,7.726,13.187Z" transform="translate(-2845.7 -489)" fill="#fe5244"/>
        <path id="路径_21" data-name="路径 21" d="M3022.21,667.836c-2.708-1.025-9.148,2.494-14,8.613-5.217,6.563-7.328,13.539-5.033,15.359L2929.7,652.736a4.689,4.689,0,0,0-6.747,5.308l22.244,84.6a309.355,309.355,0,0,1-47.991,25.93c-20.346,8.613-33.656,10.311-41.642,10-6.96-.26-9.867-2.035-9.867-2.035v-276.9c0,.015,0,.015.015.031.643,1.637,7.542.49,15.421-2.585,7.251-2.815,12.789-6.272,13.141-8.077l.015-.015v87.246a15.109,15.109,0,0,0,7.725,13.187Z" transform="translate(-2845.7 -489)" fill="#fe5244"/>
        <path id="路径_22" data-name="路径 22" d="M3394.415,1559.658a.457.457,0,0,1-.219-.055l-86.358-46.843a.459.459,0,1,1,.438-.808l86.358,46.843a.459.459,0,0,1-.218.863Z" transform="translate(-3236.936 -1355.412)" fill="#fff"/>
        <path id="路径_23" data-name="路径 23" d="M2525.384,790.28l-9.684,56.282,49.429-34.038Z" transform="translate(-2487.016 -688.715)" fill="#ffcf2d"/>
        <path id="路径_24" data-name="路径 24" d="M3029,1207.626l9.867-57.356a.459.459,0,0,1,.906.153l-9.5,55.208,48.532-33.42a.459.459,0,1,1,.52.756Z" transform="translate(-3000.958 -1048.784)" fill="#fff"/>
      </g>
      <g id="ARMS">
        <g id="LEFT_ARM" data-name="LEFT ARM">
          <path id="路径_25" data-name="路径 25" d="M2709.8,381.222l-63.809,13.08c-2.356.49-4.788-1.606-5.416-4.681s.78-5.951,3.136-6.441l63.809-13.08Z" transform="translate(-2640.043 -368.956)" fill="#fff"/>
          <path id="路径_26" data-name="路径 26" d="M2643.18,392.257a4.262,4.262,0,0,1-2.35-.747,6.732,6.732,0,0,1-2.741-4.313c-.667-3.268.874-6.359,3.433-6.892l64.185-13.156,2.432,11.871-64.183,13.156A3.787,3.787,0,0,1,2643.18,392.257Zm61.93-24.2-63.434,13c-2.142.447-3.421,3.133-2.838,5.989a5.954,5.954,0,0,0,2.412,3.825,3.343,3.343,0,0,0,2.55.557l63.435-13Z" transform="translate(-2637.933 -366.457)" fill="#3fb1b5"/>
          <ellipse id="椭圆_1" data-name="椭圆 1" cx="4.36" cy="5.676" rx="4.36" ry="5.676" transform="matrix(0.98, -0.201, 0.201, 0.98, 63.186, 2.064)" fill="#fff"/>
          <path id="路径_27" data-name="路径 27" d="M3060.157,379.262a4.429,4.429,0,0,1-2.906-1.173,6.916,6.916,0,0,1-2.189-3.887c-.67-3.272.869-6.361,3.43-6.884h0c2.563-.525,5.191,1.71,5.862,4.983a6.994,6.994,0,0,1-.476,4.436,4.274,4.274,0,0,1-2.955,2.455,3.8,3.8,0,0,1-.766.07Zm-1.513-11.2c-2.142.441-3.419,3.125-2.833,5.985a6.216,6.216,0,0,0,1.932,3.462,3.507,3.507,0,0,0,3.028.918,3.544,3.544,0,0,0,2.419-2.041,6.209,6.209,0,0,0,.415-3.944c-.586-2.858-2.81-4.827-4.96-4.386Z" transform="translate(-2991.116 -366.534)" fill="#3fb1b5"/>
          <path id="路径_28" data-name="路径 28" d="M2718.919,464.631s-20.637,23.192-18.388,28.3c2.937,2.922,5.323,4.207,4.971,5.293-.382,1.178-5.324,8.292-5.324,8.292l-.489-5.278-4.727,1.56s4.987-7.282,5.309-9.515c-2.05-1.56-6.227-4.8-6.089-7.068.153-2.4,7.466-10.938,12.774-16.828l-8,2.647-1.576-7.389,14.4-2.647Z" transform="translate(-2685.574 -446.797)" fill="#fe5244"/>
          <circle id="椭圆_2" data-name="椭圆 2" cx="4.345" cy="4.345" r="4.345" transform="translate(26.201 10.155)" fill="#fff"/>
          <path id="路径_29" data-name="路径 29" d="M2811.427,435.954a4.727,4.727,0,1,1,4.727-4.727A4.727,4.727,0,0,1,2811.427,435.954Zm0-8.689a3.962,3.962,0,1,0,3.962,3.962,3.962,3.962,0,0,0-3.962-3.962Z" transform="translate(-2780.882 -416.727)" fill="#fe5244"/>
          <path id="路径_30" data-name="路径 30" d="M2874.078,482.619c-.352,1.805-5.89,5.263-13.141,8.077-7.879,3.06-14.778,4.222-15.42,2.585,0-.015,0-.015-.015-.031-.551-1.652,5.293-5.431,13.126-8.475,7.878-3.06,14.778-4.222,15.421-2.585A.785.785,0,0,1,2874.078,482.619Z" transform="translate(-2813.717 -463.27)" fill="#9a3b82"/>
          <path id="路径_31" data-name="路径 31" d="M2894.549,404.935l-.842,12.147-.4,5.813a64.613,64.613,0,0,1-6.594,2.968,55.357,55.357,0,0,1-10.816,3.121V417.878l11.611-2.386a49.766,49.766,0,0,1,1.866-7.619C2890.6,404.4,2894.549,404.935,2894.549,404.935Z" transform="translate(-2839.496 -398.437)" fill="#a0505a"/>
          <path id="路径_32" data-name="路径 32" d="M2918.106,475.483a.306.306,0,0,1-.306-.306c0-2.795,2.666-4.418,4.258-5.386a5.421,5.421,0,0,0,.973-.669.306.306,0,0,1,.589.153c-.075.306-.435.538-1.244,1.03-1.483.9-3.964,2.413-3.964,4.865a.306.306,0,0,1-.306.314ZM2923.032,469.137Z" transform="translate(-2874.985 -452.661)" fill="#73325a"/>
          <path id="路径_33" data-name="路径 33" d="M2893.707,484.5l-.4,5.813a64.626,64.626,0,0,1-6.594,2.968A55.355,55.355,0,0,1,2875.9,496.4v-5.018a61.288,61.288,0,0,1,8.506-4.023A58.093,58.093,0,0,1,2893.707,484.5Z" transform="translate(-2839.496 -465.854)" fill="#73325a"/>
          <path id="路径_34" data-name="路径 34" d="M2863.486,375.191l-12.958,2.968A1.124,1.124,0,0,1,2849.2,377v-7.863a2.367,2.367,0,0,1,1.575-2.279l12.8-4.176a1.273,1.273,0,0,1,1.622,1.285v8.965A2.313,2.313,0,0,1,2863.486,375.191Z" transform="translate(-2816.878 -362.619)" fill="#a0505a"/>
          <path id="路径_35" data-name="路径 35" d="M2869.64,394.754a1.446,1.446,0,0,1-1.44-1.449v-7.542a2.572,2.572,0,0,1,1.836-2.48.306.306,0,1,1,.177.584,1.967,1.967,0,0,0-1.4,1.9v7.542a.832.832,0,0,0,1.007.818.306.306,0,0,1,.129.6,1.408,1.408,0,0,1-.305.034Z" transform="translate(-2832.973 -380.106)" fill="#73325a"/>
          <path id="路径_36" data-name="路径 36" d="M2894.045,387.7a1.418,1.418,0,0,1-.895-.32,1.476,1.476,0,0,1-.551-1.16v-7.771a2.65,2.65,0,0,1,1.835-2.543.306.306,0,1,1,.177.586,2.033,2.033,0,0,0-1.4,1.957v7.771a.873.873,0,0,0,.323.684.813.813,0,0,0,.682.165.306.306,0,1,1,.13.6A1.338,1.338,0,0,1,2894.045,387.7Z" transform="translate(-2853.64 -373.863)" fill="#73325a"/>
          <path id="路径_37" data-name="路径 37" d="M2921.351,379.782a1.419,1.419,0,0,1-.889-.317,1.52,1.52,0,0,1-.563-1.192v-8.047a2.734,2.734,0,0,1,1.836-2.617.307.307,0,0,1,.187.584,2.116,2.116,0,0,0-1.409,2.033v8.047a.918.918,0,0,0,.335.714.793.793,0,0,0,.671.165.306.306,0,0,1,.13.6A1.4,1.4,0,0,1,2921.351,379.782Z" transform="translate(-2876.764 -366.833)" fill="#73325a"/>
        </g>
        <g id="RIGHT_ARM" data-name="RIGHT ARM" transform="translate(188.328 197.978)">
          <path id="路径_38" data-name="路径 38" d="M3883.257,1672.146c-5.217,6.578-11.061,10.571-13.355,8.751s-.184-8.781,5.032-15.359c4.865-6.119,11.291-9.638,14-8.613l.535.306C3891.779,1659.066,3888.474,1665.583,3883.257,1672.146Z" transform="translate(-3868.981 -1656.748)" fill="#9a3b82"/>
          <path id="路径_39" data-name="路径 39" d="M3917.551,1706.289l-3.473,1.836a2.827,2.827,0,0,1-3.824-1.163l-3.656-6.792-5.538-1.9c.612.229,3,1.453,2.249,5.905l-13-4.849-4.467-1.668-4.238-2.708a35.188,35.188,0,0,1,4.054-6.318,31.793,31.793,0,0,1,4.513-4.635l4.421,3.09,4.528.49,7.358.78a7.69,7.69,0,0,1,3.3,1.147l5.874,4.176a3.755,3.755,0,0,1,1.56,2.57l1.194,8.353A1.624,1.624,0,0,1,3917.551,1706.289Z" transform="translate(-3879.67 -1679.831)" fill="#a0505a"/>
          <path id="路径_40" data-name="路径 40" d="M4065.751,1753.513a.306.306,0,0,1-.141-.578,1.107,1.107,0,0,0,.588-1.143l-1.04-6.731a3.063,3.063,0,0,0-1.236-2.03l-5.094-3.626a.306.306,0,1,1,.354-.5l5.095,3.626a3.673,3.673,0,0,1,1.487,2.437l1.04,6.746a1.739,1.739,0,0,1-.917,1.772A.307.307,0,0,1,4065.751,1753.513Z" transform="translate(-4029.676 -1726.289)" fill="#73325a"/>
          <path id="路径_41" data-name="路径 41" d="M4045.152,1761.413a.306.306,0,0,1-.139-.578,1.11,1.11,0,0,0,.586-1.143l-1.04-6.731a3.062,3.062,0,0,0-1.237-2.03l-5.094-3.626a.306.306,0,1,1,.354-.5l5.095,3.626a3.673,3.673,0,0,1,1.487,2.437l1.04,6.745a1.743,1.743,0,0,1-.918,1.773A.307.307,0,0,1,4045.152,1761.413Z" transform="translate(-4012.227 -1732.981)" fill="#73325a"/>
          <path id="路径_42" data-name="路径 42" d="M3986.716,1768.9a.27.27,0,0,1-.1-.017l-3.7-1.254a.306.306,0,0,1,.2-.578l3.7,1.254a.306.306,0,0,1-.1.6Z" transform="translate(-3965.326 -1750.17)" fill="#73325a"/>
          <path id="路径_43" data-name="路径 43" d="M3899.117,1687.58a52.161,52.161,0,0,1-5.156,7.664,44.388,44.388,0,0,1-3.656,4.085l-4.467-1.668-4.238-2.708a35.188,35.188,0,0,1,4.054-6.318,31.793,31.793,0,0,1,4.513-4.635l4.421,3.09Z" transform="translate(-3879.67 -1679.831)" fill="#73325a"/>
        </g>
      </g>
      <g id="HEAD" transform="translate(63.857 78.311)">
        <g id="CAP" transform="translate(10.334)">
          <path id="路径_44" data-name="路径 44" d="M2605.4,523.28l32.723,14.518,11.673,34.146-23.712-16.95-11.061-13.508Z" transform="translate(-2605.4 -521.539)" fill="#fe5244"/>
          <path id="路径_45" data-name="路径 45" d="M3185.8,987.621a21.032,21.032,0,0,1,15.023,13.768l2.28-2.295s-4.146-11.611-15.1-14.594Z" transform="translate(-3176.177 -967.675)" fill="#9a3b82"/>
          <path id="路径_46" data-name="路径 46" d="M3201.292,909.289c-3.672-2.081-7.068-3.228-8.154-2.815a1.356,1.356,0,0,0,.107-.612,1.28,1.28,0,0,0-1.27-1.178h-.107a1.3,1.3,0,0,0-1.178,1.377c0,.046.016.092.016.122l-3.886,2.493a2.806,2.806,0,0,1-4.314-2.371v-5.584a7.222,7.222,0,0,0-10.066-6.639l-7.4,3.3-2.815-8.246-32.891-14.579a.408.408,0,1,0-.321.75l32.554,14.441,11.611,33.977a.408.408,0,0,0,.383.275c.046,0,.092-.015.137-.015a.424.424,0,0,0,.26-.52l-8.643-25.3,7.466-3.335a6.395,6.395,0,0,1,8.919,5.89v5.584a3.606,3.606,0,0,0,5.568,3.06l3.855-2.463a1.255,1.255,0,0,0,.856.337h.107a1.127,1.127,0,0,0,.7-.291c0,1.086,2.784,3.519,6.609,5.691.826.474,1.653.9,2.433,1.27a5.218,5.218,0,0,0,1.193-1.438,4.937,4.937,0,0,0,.612-1.759C3202.9,910.253,3202.118,909.763,3201.292,909.289Zm-9.286-2.693a.623.623,0,1,1,.568-.674A.617.617,0,0,1,3192.006,906.6Z" transform="translate(-3127.845 -874.519)" fill="#ffcf2d"/>
        </g>
        <g id="HEAD-2" data-name="HEAD" transform="translate(0 19.196)">
          <g id="NECK" transform="translate(12.17 17.853)">
            <path id="路径_47" data-name="路径 47" d="M2623.06,757.094l-5.66,31.484,19.291-14.87V754.08Z" transform="translate(-2617.4 -754.08)" fill="#a0505a"/>
            <path id="路径_48" data-name="路径 48" d="M2650.5,757.094l-.7,3.947,8.536,17.134,5.8-4.467V754.08Z" transform="translate(-2644.844 -754.08)" fill="#73325a"/>
          </g>
          <g id="HAIR" transform="translate(0 0.255)">
            <path id="路径_49" data-name="路径 49" d="M3077.286,1004.165s-9.653-2.4-12.667,3.2,5.8,7.144,6.165,5.186c.168-.857-15.864-.842-13.172,11.29,2.8,12.636,15.42,8.292,15.42,8.292l1.469-8.169Z" transform="translate(-3057.008 -1003.349)" fill="#fff"/>
            <path id="路径_50" data-name="路径 50" d="M3066.615,1031.484a11.6,11.6,0,0,1-5.709-1.377c-2.653-1.487-4.42-4.141-5.25-7.891-.918-4.13.227-7.426,3.3-9.551a13.766,13.766,0,0,1,4.563-1.954,4.268,4.268,0,0,1-.778-.765c-.65-.845-1.187-2.295-.049-4.412,1.287-2.39,3.957-3.725,7.722-3.858a21.1,21.1,0,0,1,5.287.509l.268.066-2.823,20.07-1.5,8.357-.17.058A16.274,16.274,0,0,1,3066.615,1031.484Zm-2.377-20.3a13.6,13.6,0,0,0-4.9,1.97c-2.916,2-3.953,5.005-3.081,8.936.791,3.569,2.457,6.087,4.95,7.485,3.978,2.235,8.933.927,9.9.635l1.435-7.985,2.743-19.505c-1.56-.326-9.463-1.709-12.054,3.105-.79,1.466-.791,2.728,0,3.748a3.937,3.937,0,0,0,1.119.964c2.361-.459,4.394-.352,4.883-.032a.4.4,0,0,1,.2.421c-.085.459-.492.8-1.146.956a6.158,6.158,0,0,1-4.048-.7Zm1.1-.188a5.359,5.359,0,0,0,2.8.291,1.136,1.136,0,0,0,.621-.327,10.42,10.42,0,0,0-3.425.037Zm3.491-.187Z" transform="translate(-3055.347 -1001.667)" fill="#9a3b82"/>
            <path id="路径_51" data-name="路径 51" d="M3221.494,1105.241s-14.411,18.786-1.744,26.772c10.158,6.395,12.774-2.616,10.051-3.855-2.952-1.346-9.729,24.049,11.137,23.972,20.913-.077,14.518-26.191,3.978-34.849-5.033-4.131-21.83-15.681-21.83-15.681Z" transform="translate(-3190.186 -1086.312)" fill="#fff"/>
            <path id="路径_52" data-name="路径 52" d="M3239.165,1149.853c-8.591,0-12.139-4.319-13.6-7.955a19.606,19.606,0,0,1-.937-9.907c-1.6.038-3.8-.474-6.716-2.307a10.8,10.8,0,0,1-5.154-7.42c-.82-4.589,1.083-9.727,2.823-13.236a45.1,45.1,0,0,1,3.977-6.531l1.726-3.947.306.21c.168.116,16.866,11.605,21.852,15.7a29.041,29.041,0,0,1,8.261,12.609c1.934,5.507,2.209,10.762.777,14.783-1.293,3.633-4.634,7.969-13.207,8Zm-13.921-17.9c-.011.08-.023.153-.035.24a19.106,19.106,0,0,0,.918,9.485c2,4.952,6.506,7.568,13.038,7.568h.091c6.5-.025,10.874-2.65,12.633-7.594,3.017-8.472-2.28-21.317-8.849-26.712-4.589-3.769-19.2-13.869-21.5-15.451l-1.457,3.335-.023.03c-.083.107-8.219,10.839-6.7,19.317a10.2,10.2,0,0,0,4.878,7.01,11.866,11.866,0,0,0,6.485,2.217c.473-2.7,1.377-4.879,2.276-5.743a1.086,1.086,0,0,1,1.253-.349,2.23,2.23,0,0,1,1.182,2.038,4.493,4.493,0,0,1-2.227,3.978,5.075,5.075,0,0,1-1.959.627Zm2.643-6.119a.789.789,0,0,0-.467.257c-.677.649-1.571,2.529-2.07,5.238a4.424,4.424,0,0,0,1.545-.542,3.865,3.865,0,0,0,1.925-3.418,1.648,1.648,0,0,0-.825-1.513.258.258,0,0,0-.11-.028Z" transform="translate(-3188.506 -1083.729)" fill="#9a3b82"/>
          </g>
          <g id="HEAD-3" data-name="HEAD" transform="translate(13.225)">
            <path id="路径_53" data-name="路径 53" d="M3159.448,1014.472l1.086.689a2.271,2.271,0,0,1,.7,3.121l-.214.321a2.26,2.26,0,0,1-3.121.7l-1.162-.734c-1.285.918-9.011,6.073-13.784.948-4.635-4.972,6.073-19.52,6.073-19.52a21.723,21.723,0,0,1,12.636,10.923Z" transform="translate(-3141.793 -1000)" fill="#a0505a"/>
            <path id="路径_54" data-name="路径 54" d="M3169.542,1030.151h-.044a2.662,2.662,0,0,1-1.435-.785c-.393-.425-.037-1.288.681-2.906a13.735,13.735,0,0,0,1.213-3.474c.215-1.889-1.973-2.734-2.066-2.769a.306.306,0,0,1,.214-.572c.946.35,2.676,1.516,2.462,3.411a14.288,14.288,0,0,1-1.262,3.653,6.916,6.916,0,0,0-.783,2.25,2.047,2.047,0,0,0,1.071.581.307.307,0,0,1-.046.612Z" transform="translate(-3163.743 -1016.627)" fill="#73325a"/>
            <path id="路径_55" data-name="路径 55" d="M3167.137,1094.287a7.449,7.449,0,0,1-3.381-.765.306.306,0,0,1,.3-.536h0a7.161,7.161,0,0,0,4.21.612.31.31,0,0,1,.095.612A8.039,8.039,0,0,1,3167.137,1094.287Z" transform="translate(-3160.263 -1078.729)" fill="#73325a"/>
            <ellipse id="椭圆_3" data-name="椭圆 3" cx="1.101" cy="0.597" rx="1.101" ry="0.597" transform="translate(10.155 12.078) rotate(-69.13)" fill="#73325a"/>
            <ellipse id="椭圆_4" data-name="椭圆 4" cx="0.918" cy="0.505" rx="0.918" ry="0.505" transform="translate(3.327 8.731) rotate(-69.13)" fill="#73325a"/>
            <path id="路径_56" data-name="路径 56" d="M3250.306,1106.711a.306.306,0,0,1-.259-.47,1.747,1.747,0,0,1,2.411-.538.306.306,0,1,1-.327.517,1.136,1.136,0,0,0-1.567.349A.3.3,0,0,1,3250.306,1106.711Z" transform="translate(-3233.447 -1089.302)" fill="#73325a"/>
            <path id="路径_57" data-name="路径 57" d="M3216.09,1049.8a.306.306,0,0,1-.28-.184,4.481,4.481,0,0,0-2.63-2.55.306.306,0,1,1,.153-.591,5.042,5.042,0,0,1,3.031,2.9.306.306,0,0,1-.153.4A.291.291,0,0,1,3216.09,1049.8Z" transform="translate(-3202.045 -1039.353)" fill="#73325a"/>
          </g>
          <g id="HAIR-2" data-name="HAIR" transform="translate(26.575 3.239)">
            <path id="路径_58" data-name="路径 58" d="M3231.4,1024.2a10.97,10.97,0,0,0,3.794,11.351c3.427,2.708,3.625-.551,3.625-.551A14.777,14.777,0,0,0,3231.4,1024.2Z" transform="translate(-3230.747 -1023.736)" fill="#fff"/>
            <path id="路径_59" data-name="路径 59" d="M3235.766,1034.366a4.282,4.282,0,0,1-2.448-1.141,10.859,10.859,0,0,1-4.2-7.612,11.465,11.465,0,0,1,.306-4.068l.115-.375.336.2a15.2,15.2,0,0,1,7.566,11.044v.038a2.2,2.2,0,0,1-1.046,1.787A1.522,1.522,0,0,1,3235.766,1034.366Zm-5.859-12.251a10.674,10.674,0,0,0,3.785,10.629c1.07.847,1.918,1.172,2.448.935.563-.251.67-1.109.684-1.245A14.606,14.606,0,0,0,3229.906,1022.115Z" transform="translate(-3229.059 -1021.17)" fill="#9a3b82"/>
          </g>
        </g>
      </g>
    </g>
    <g id="_1_CHARACTER" data-name="1 CHARACTER" transform="translate(101.002 7.65)">
      <g id="DRESS-2" data-name="DRESS" transform="translate(18.92 66.328)">
        <path id="路径_60" data-name="路径 60" d="M1461.8,1046.316c-1.606-5.859-28.133-.367-57.353,10.265-27.95,10.173-50.668,23.9-50.912,29.418l-15.329-111.815a3.2,3.2,0,0,0-6.364.459v95.491h0c-.184-2.616-6.93-4.712-15.222-4.712s-15.023,2.1-15.222,4.712h0v-107.3a25.854,25.854,0,0,1,12.483-22.121l10.051-6.073,41.4-25,38.505-23.437v-40c0,1.713,7.083,3.09,15.436,3.09s15.436-1.362,15.436-3.09v43.37a31.911,31.911,0,0,1-12.193,24.676l-23.421,16.736a8.994,8.994,0,0,0-2.172,12.422c15.527,22.473,63.243,88.056,64.864,102.482A4.017,4.017,0,0,1,1461.8,1046.316Z" transform="translate(-1301.4 -846.2)" fill="#3fb1b5"/>
        <path id="路径_61" data-name="路径 61" d="M1965.459,1095a.459.459,0,0,1-.459-.459v-11.78a.459.459,0,1,1,.918,0v11.78A.459.459,0,0,1,1965.459,1095Z" transform="translate(-1863.482 -1046.181)" fill="#fff"/>
        <path id="路径_62" data-name="路径 62" d="M1495.9,1316.946l-52.517-35.126,11.835-7.407,21.395,12.369-2.538-23.643,11.893-7.037Zm-50.828-35.1,49.583,33.165-9.375-57.437-10.229,6.055,2.665,24.852-22.488-13Z" transform="translate(-1421.66 -1193.393)" fill="#fff"/>
        <path id="路径_63" data-name="路径 63" d="M1654.68,2194.417a12.1,12.1,0,0,1-4.847-.751,2.633,2.633,0,0,1-1.476-1.45,2.872,2.872,0,0,1,.228-2.183c1.414-3.037,7.175-7.472,16.216-12.49a243.413,243.413,0,0,1,33.606-14.96,335.582,335.582,0,0,1,34.87-10.886c10.207-2.448,16.794-3.026,19.582-1.726a2.562,2.562,0,0,1,1.437,1.428,3.078,3.078,0,0,1-.261,2.358c-2.806,6.026-21.78,18.105-48.677,27.887a292.258,292.258,0,0,1-35.339,10.626A79.671,79.671,0,0,1,1654.68,2194.417Zm93.931-44.365c-8.457,0-26.636,4.776-49.932,13.248-24.841,9.035-46.537,20.917-49.395,27.053a2.1,2.1,0,0,0-.2,1.6,1.891,1.891,0,0,0,1.082,1.019c2.7,1.262,9.7.748,19.7-1.449a291.493,291.493,0,0,0,35.241-10.6,209.012,209.012,0,0,0,32.8-15.036c8.414-4.916,14.044-9.455,15.44-12.455a2.341,2.341,0,0,0,.236-1.773h0a1.84,1.84,0,0,0-1.042-1,9.79,9.79,0,0,0-3.938-.61Z" transform="translate(-1595.173 -1949.945)" fill="#3fb1b5"/>
      </g>
      <g id="LEGS-2" data-name="LEGS" transform="translate(29.75 266.544)">
        <g id="RIGHT_LEG-2" data-name="RIGHT LEG" transform="translate(44.535)">
          <path id="路径_64" data-name="路径 64" d="M1779.234,2814.759l-1.683,2.938-1.866,3.274c-16.139,2.019-18.985-8.536-18.985-8.536l2.432-4.834C1765.65,2811.608,1773.91,2813.735,1779.234,2814.759Z" transform="translate(-1742.412 -2707.758)" fill="#e57281"/>
          <path id="路径_65" data-name="路径 65" d="M1827.542,2187.385c-11.474,19.781-52.733,77.669-52.733,77.669s-2.157-.229-5.4-.857c-5.324-1.04-13.585-3.152-20.117-7.159a28.645,28.645,0,0,1-4.192-3.105l29.908-60.734,7.557-15.926,4.192-8.842c.5-.184,1.01-.352,1.5-.52.245-.092.489-.168.75-.26.75-.26,1.484-.505,2.218-.75.612-.2,1.209-.4,1.805-.612,1.821-.612,3.61-1.178,5.354-1.729,11.719-3.7,21.739-6.2,28.5-6.961a27.052,27.052,0,0,1,4.192,8.888C1832.5,2172.011,1832.33,2179.14,1827.542,2187.385Z" transform="translate(-1732.587 -2157.196)" fill="#fff"/>
          <path id="路径_66" data-name="路径 66" d="M1772.383,2263.222l-.222-.023c-.023,0-2.211-.239-5.432-.863-5.688-1.111-13.816-3.263-20.246-7.208a28.7,28.7,0,0,1-4.248-3.148l-.214-.193,30.036-60.992,7.554-15.921,4.259-8.984.153-.053c.381-.139.765-.27,1.132-.4l.373-.127c.142-.054.294-.105.45-.153l.3-.1c.756-.262,1.5-.512,2.224-.752.5-.162,1.146-.375,1.8-.612,1.868-.629,3.727-1.224,5.368-1.733,12.076-3.816,21.957-6.228,28.572-6.976l.223-.026.13.183a27.147,27.147,0,0,1,4.251,9.014c1.781,6.91.578,14.038-3.574,21.186h0c-11.351,19.571-52.34,77.121-52.751,77.7Zm-29.42-11.617a28.275,28.275,0,0,0,3.921,2.871c6.332,3.885,14.365,6.01,19.99,7.11,2.6.5,4.519.751,5.146.826,2.578-3.623,41.57-58.469,52.583-77.455h0c4.046-6.968,5.221-13.9,3.494-20.61a26.8,26.8,0,0,0-4-8.578c-6.566.772-16.31,3.162-28.205,6.919-1.637.517-3.493,1.1-5.354,1.727-.655.234-1.311.451-1.81.612-.717.239-1.461.487-2.21.747l-.306.106c-.153.049-.291.1-.434.153l-.386.132c-.318.108-.646.22-.97.337l-4.13,8.7-7.557,15.926Z" transform="translate(-1729.978 -2154.96)" fill="#9a3b82"/>
          <path id="路径_67" data-name="路径 67" d="M1724.178,2886.585a2.974,2.974,0,0,1-5,1.438L1682.2,2851.17l11.565-12.07s2.677,10.54,18.832,8.536C1725.647,2867.34,1725.617,2880.237,1724.178,2886.585Z" transform="translate(-1679.309 -2734.439)" fill="#fff"/>
          <path id="路径_68" data-name="路径 68" d="M1718.3,2885.029a3.314,3.314,0,0,1-2.356-.987l-37.24-37.124,12.3-12.838.17.667a10.828,10.828,0,0,0,3.275,4.859c3.434,3.023,8.67,4.2,15.145,3.393l.236-.029.13.2c5.8,8.749,9.589,17.03,11.278,24.61a33.442,33.442,0,0,1,.358,14.634h0a3.31,3.31,0,0,1-2.341,2.474A3.4,3.4,0,0,1,1718.3,2885.029Zm-38.525-38.111,36.716,36.588a2.593,2.593,0,0,0,4.36-1.251h0c1.335-5.895,1.622-18.713-11.4-38.457-8.34.979-13.051-1.432-15.54-3.64a12.062,12.062,0,0,1-3.265-4.589Z" transform="translate(-1676.345 -2730.187)" fill="#fe5244"/>
          <path id="路径_69" data-name="路径 69" d="M1706.659,2953.962a7.221,7.221,0,0,1-7.374-1.331l-19.306-16.966a1.211,1.211,0,0,1-.138-1.652,1.2,1.2,0,0,0-.092-1.606l-1.576-1.53a1.157,1.157,0,0,0-1.576-.046l-.367.306a1.143,1.143,0,0,1-1.515,0l-10.372-9.011a3.061,3.061,0,0,1-.123-4.482l1.806-1.744,37.205,37.557a2.944,2.944,0,0,0,3.717.4Z" transform="translate(-1663.305 -2799.49)" fill="#fe5244"/>
          <path id="路径_70" data-name="路径 70" d="M1883.2,2931.53a.383.383,0,0,1-.153-.731c3.685-1.661,4.626-3.107,4.765-4.026a1.765,1.765,0,0,0-.5-1.5.383.383,0,0,1,.508-.572,2.541,2.541,0,0,1,.75,2.192c-.245,1.609-1.989,3.161-5.2,4.608A.384.384,0,0,1,1883.2,2931.53Z" transform="translate(-1849.242 -2806.859)" fill="#fe5244"/>
          <path id="路径_71" data-name="路径 71" d="M1896.1,2953.427a.382.382,0,0,1-.153-.731c3.671-1.657,4.618-3.1,4.764-4.014a1.769,1.769,0,0,0-.5-1.518.382.382,0,1,1,.509-.571,2.544,2.544,0,0,1,.751,2.192c-.246,1.609-2,3.16-5.2,4.608A.388.388,0,0,1,1896.1,2953.427Z" transform="translate(-1860.168 -2825.405)" fill="#fe5244"/>
          <path id="路径_72" data-name="路径 72" d="M1909,2975.326a.383.383,0,0,1-.153-.732c3.672-1.656,4.619-3.1,4.764-4.014a1.768,1.768,0,0,0-.5-1.518.383.383,0,0,1,.509-.571,2.543,2.543,0,0,1,.751,2.192c-.246,1.609-2,3.161-5.2,4.608A.385.385,0,0,1,1909,2975.326Z" transform="translate(-1871.095 -2843.954)" fill="#fe5244"/>
          <path id="路径_73" data-name="路径 73" d="M2126.093,2166.488a112.606,112.606,0,0,0-29.954,4.437,26.507,26.507,0,0,0-2.738-6.364c11.718-3.7,21.739-6.2,28.5-6.961A26.758,26.758,0,0,1,2126.093,2166.488Z" transform="translate(-2027.604 -2157.196)" fill="#9a3b82"/>
        </g>
        <g id="LEFT_LEG-2" data-name="LEFT LEG" transform="translate(0 6.909)">
          <path id="路径_74" data-name="路径 74" d="M1502.84,2791.785l-2.953,3.779-2.325,2.968c-16.262-.322-17.562-11.168-17.562-11.168l3.534-5.063h0C1489.669,2787.226,1497.96,2790.286,1502.84,2791.785Z" transform="translate(-1463.507 -2693.237)" fill="#e57281"/>
          <path id="路径_75" data-name="路径 75" d="M1573.187,2221.841a29.228,29.228,0,0,1-6.272,12.04c-14.319,17.241-63.763,68.428-63.763,68.428s-19.306-4.345-27.552-14.748l33.289-47.287h0l12.285-17.455a251.187,251.187,0,0,1,31.147-13.646c6.211-2.264,12.193-4.3,17.792-6.073a27.416,27.416,0,0,1,2.739,6.364A24.239,24.239,0,0,1,1573.187,2221.841Z" transform="translate(-1459.78 -2202.644)" fill="#fff"/>
          <path id="路径_76" data-name="路径 76" d="M1500.635,2300.2l-.21-.047a76.608,76.608,0,0,1-10.744-3.493c-5.387-2.194-12.713-5.952-17.024-11.391l-.177-.223.165-.234,33.289-47.287L1518.271,2220l.081-.042a250.727,250.727,0,0,1,31.195-13.667c6.063-2.209,12.053-4.255,17.807-6.078l.291-.092.153.262a27.874,27.874,0,0,1,2.778,6.451,24.5,24.5,0,0,1,.341,12.568h0a29.793,29.793,0,0,1-6.35,12.2c-14.165,17.054-63.287,67.938-63.781,68.45Zm-27.2-15.183c7.7,9.448,24.863,13.836,26.949,14.34,3.038-3.148,49.838-51.689,63.593-68.251a29.06,29.06,0,0,0,6.194-11.882h0a23.766,23.766,0,0,0-.332-12.182,27.114,27.114,0,0,0-2.547-6.012c-5.66,1.8-11.535,3.806-17.484,5.976a250.871,250.871,0,0,0-31.019,13.582l-12.239,17.38Z" transform="translate(-1457.137 -2200.12)" fill="#9a3b82"/>
          <path id="路径_77" data-name="路径 77" d="M1431.271,2866.771a2.966,2.966,0,0,1-5.156.7L1394.8,2825.7l13.172-10.3s1.132,10.846,17.409,11.167C1435.493,2847.939,1433.612,2860.7,1431.271,2866.771Z" transform="translate(-1391.341 -2721.273)" fill="#fff"/>
          <path id="路径_78" data-name="路径 78" d="M1425.539,2865.036a3.318,3.318,0,0,1-2.679-1.355l-31.54-42.08,14.011-10.952.072.687a10.857,10.857,0,0,0,2.542,5.292c2.962,3.491,7.973,5.4,14.494,5.533h.237l.1.214c4.49,9.485,7.065,18.229,7.649,25.973a33.358,33.358,0,0,1-1.75,14.534h0a3.309,3.309,0,0,1-2.665,2.118A3.606,3.606,0,0,1,1425.539,2865.036Zm-33.157-43.293,31.092,41.479a2.585,2.585,0,0,0,4.493-.612h0c2.172-5.637,4.3-18.275-5.778-39.689-8.4-.22-12.711-3.288-14.856-5.835a12.1,12.1,0,0,1-2.572-5.018Z" transform="translate(-1388.393 -2717.25)" fill="#fe5244"/>
          <path id="路径_79" data-name="路径 79" d="M1410.3,2923.955a7.247,7.247,0,0,1-7.1-2.356l-16.675-19.521a1.209,1.209,0,0,1,.092-1.652,1.2,1.2,0,0,0,.138-1.606l-1.346-1.729a1.186,1.186,0,0,0-1.56-.275l-.4.26a1.169,1.169,0,0,1-1.5-.214l-9.026-10.357a3.03,3.03,0,0,1,.52-4.436l2.035-1.469,31.468,42.36a2.98,2.98,0,0,0,3.626.933Z" transform="translate(-1372.189 -2776.499)" fill="#fe5244"/>
          <path id="路径_80" data-name="路径 80" d="M1588.791,2929.332a.382.382,0,0,1-.106-.75c3.878-1.118,5.019-2.41,5.293-3.3a1.759,1.759,0,0,0-.28-1.57.383.383,0,0,1,.586-.493,2.536,2.536,0,0,1,.43,2.272c-.471,1.557-2.428,2.844-5.813,3.825A.364.364,0,0,1,1588.791,2929.332Z" transform="translate(-1555.332 -2812.487)" fill="#fe5244"/>
          <path id="路径_81" data-name="路径 81" d="M1600.491,2952.832a.382.382,0,0,1-.106-.75c3.878-1.119,5.02-2.409,5.295-3.3a1.762,1.762,0,0,0-.281-1.57.383.383,0,0,1,.586-.492,2.538,2.538,0,0,1,.43,2.272c-.471,1.557-2.428,2.844-5.814,3.825a.371.371,0,0,1-.11.01Z" transform="translate(-1565.242 -2832.393)" fill="#fe5244"/>
          <path id="路径_82" data-name="路径 82" d="M1610.091,2976.332a.383.383,0,0,1-.106-.75c3.878-1.118,5.019-2.409,5.295-3.295a1.762,1.762,0,0,0-.281-1.57.383.383,0,0,1,.586-.493,2.536,2.536,0,0,1,.43,2.272c-.471,1.558-2.428,2.844-5.813,3.824A.357.357,0,0,1,1610.091,2976.332Z" transform="translate(-1573.374 -2852.297)" fill="#fe5244"/>
          <path id="路径_83" data-name="路径 83" d="M1757.262,2209.3a178.684,178.684,0,0,0-18.557,6.333,243.472,243.472,0,0,0-45.405,24.447l12.285-17.455a251.191,251.191,0,0,1,31.147-13.646c2.081-.75,4.13-1.484,6.165-2.2.5-.184,1.01-.352,1.5-.52.245-.092.489-.168.75-.26.75-.26,1.484-.5,2.218-.749.612-.2,1.209-.4,1.805-.612,1.821-.612,3.61-1.178,5.354-1.729a29.413,29.413,0,0,1,2.738,6.4Z" transform="translate(-1644.176 -2202.475)" fill="#9a3b82"/>
        </g>
      </g>
      <g id="ARMS-2" data-name="ARMS" transform="translate(0 0)">
        <g id="LEFT_ARM-2" data-name="LEFT ARM" transform="translate(0 287.126)">
          <path id="路径_84" data-name="路径 84" d="M1333.54,2296.819c0,2.662-6.655,4.834-14.87,4.834s-14.87-2.157-14.87-4.834v-.107c.184-2.616,6.777-4.712,14.87-4.712s14.686,2.1,14.87,4.712Z" transform="translate(-1284.512 -2291.618)" fill="#fff"/>
          <path id="路径_85" data-name="路径 85" d="M1316.552,2299.918a35.823,35.823,0,0,1-10.634-1.432c-2.979-.967-4.619-2.311-4.619-3.785v-.133c.2-2.89,6.759-5.069,15.251-5.069s15.049,2.178,15.251,5.069v.133c0,1.467-1.64,2.81-4.619,3.779A35.7,35.7,0,0,1,1316.552,2299.918Zm-14.488-5.31v.093c0,2.15,5.813,4.452,14.488,4.452s14.487-2.294,14.487-4.452v-.093c-.17-2.1-6.02-4.343-14.487-4.343S1302.235,2292.509,1302.065,2294.608Z" transform="translate(-1282.395 -2289.5)" fill="#3fb1b5"/>
          <path id="路径_86" data-name="路径 86" d="M1220.753,2295.085v12.56a11,11,0,0,1-5.829,9.7l-6.1,3.243a10.255,10.255,0,0,1-4.834,1.209,1.213,1.213,0,0,1-1.208-1.224,1.235,1.235,0,0,1,.275-.765l2.279-2.754a.575.575,0,0,0-.443-.948h-13.417l-2.448,3.09a6.884,6.884,0,0,1-5.37,2.6h-.7a1.123,1.123,0,0,1-.979-1.683l.276-.5a7.011,7.011,0,0,1-2.693.551h-.7a1.123,1.123,0,0,1-.979-1.683l5.492-6.058,3.809-1.5v.016l18.924-7.435h0v-8.934a45.7,45.7,0,0,1,5.783-.367A40.081,40.081,0,0,1,1220.753,2295.085Z" transform="translate(-1177.723 -2293.479)" fill="#e57281"/>
          <path id="路径_87" data-name="路径 87" d="M1204.611,2414.244a.314.314,0,0,1-.153-.041.306.306,0,0,1-.11-.419l4.589-7.879a.306.306,0,0,1,.529.306l-4.589,7.879A.305.305,0,0,1,1204.611,2414.244Z" transform="translate(-1200.239 -2387.977)" fill="#9a3b82"/>
          <path id="路径_88" data-name="路径 88" d="M1348.9,2422.887a.306.306,0,0,1-.237-.5l2.815-3.442a.7.7,0,0,0,.1-.765.71.71,0,0,0-.656-.409.306.306,0,1,1,0-.612,1.325,1.325,0,0,1,1.033,2.168l-2.815,3.442A.3.3,0,0,1,1348.9,2422.887Z" transform="translate(-1322.454 -2397.63)" fill="#9a3b82"/>
          <path id="路径_89" data-name="路径 89" d="M1377.856,2294.918v7.848a40.94,40.94,0,0,1-8.873.9,42.968,42.968,0,0,1-5.783-.367v-8.934a45.482,45.482,0,0,1,5.783-.367A41.967,41.967,0,0,1,1377.856,2294.918Z" transform="translate(-1334.825 -2293.312)" fill="#9a3b82"/>
        </g>
        <g id="RIGHT_ARM-2" data-name="RIGHT ARM" transform="translate(121.326)">
          <path id="路径_90" data-name="路径 90" d="M1986.282,819.407a56.7,56.7,0,0,1-10.753-.9c-3.138-.639-4.729-1.5-4.729-2.569,0-2.321,7.788-3.534,15.482-3.534a54.887,54.887,0,0,1,10.755.941c3.136.659,4.727,1.53,4.727,2.6s-1.591,1.929-4.729,2.569A57.407,57.407,0,0,1,1986.282,819.407Zm0-6.242a54.436,54.436,0,0,0-10.6.918c-3.251.681-4.118,1.482-4.118,1.85s.868,1.157,4.117,1.819a63.65,63.65,0,0,0,21.2,0c3.25-.662,4.117-1.455,4.117-1.819C2001,814.8,1995.265,813.165,1986.282,813.165Z" transform="translate(-1970.8 -751.243)" fill="#3fb1b5"/>
          <path id="路径_91" data-name="路径 91" d="M2014.033,687.255a47.074,47.074,0,0,1-5.033-.566V671.834a3.282,3.282,0,0,1,.321-1.423l4.8-9.913a5.32,5.32,0,0,1,4.788-3h5.89l-12.881,23.7a3.06,3.06,0,0,0-.153.321C2011.02,683.369,2011.953,685.74,2014.033,687.255Z" transform="translate(-2003.156 -620.04)" fill="#e57281"/>
          <path id="路径_92" data-name="路径 92" d="M2096,794.4l1.9-3.3v8.965c-1.56.2-3.32.367-5.2.444Z" transform="translate(-2074.052 -733.202)" fill="#9a3b82"/>
          <path id="路径_93" data-name="路径 93" d="M2064.056,443.362l-31.361,57.7c-1.162,2.142-4.344,2.647-7.129,1.132s-4.085-4.467-2.922-6.594l31.361-57.7Z" transform="translate(-2014.353 -434.035)" fill="#fff"/>
          <path id="路径_94" data-name="路径 94" d="M2026.722,500.583a7.312,7.312,0,0,1-3.467-.918,6.769,6.769,0,0,1-3.352-3.912,4.119,4.119,0,0,1,.277-3.2l31.543-58.04,10.722,5.827L2030.9,498.378a4.308,4.308,0,0,1-3.232,2.133A6.091,6.091,0,0,1,2026.722,500.583Zm25.308-65.036-31.178,57.368a3.374,3.374,0,0,0-.214,2.622,6.028,6.028,0,0,0,2.982,3.453,6.279,6.279,0,0,0,3.93.765,3.559,3.559,0,0,0,2.68-1.741l31.179-57.368Z" transform="translate(-2012.224 -431.163)" fill="#fe5244"/>
          <ellipse id="椭圆_5" data-name="椭圆 5" cx="4.406" cy="5.722" rx="4.406" ry="5.722" transform="translate(37.522 7.742) rotate(-61.48)" fill="#fff"/>
          <path id="路径_95" data-name="路径 95" d="M2231.653,432.651a7.274,7.274,0,0,1-3.452-.909c-2.957-1.608-4.337-4.8-3.077-7.121h0c1.26-2.321,4.692-2.907,7.649-1.293s4.337,4.8,3.077,7.121A4.6,4.6,0,0,1,2231.653,432.651Zm-5.857-7.666c-1.059,1.951.183,4.68,2.77,6.086s5.552.964,6.612-.987-.183-4.678-2.771-6.084S2226.856,423.036,2225.8,424.985Z" transform="translate(-2185.822 -420.919)" fill="#fe5244"/>
          <path id="路径_96" data-name="路径 96" d="M2170.1,544.069l14.824-12.269-.229,4.467,4.743,1.178-11.321,6.991c8.689-1.866,24.294-4.5,26.665.092.933,1.805-.827,5.492-2,8.139-.734,5.584,28.547-1.331,28.883-1.407l-4.512,4.176,4.512,2.57s-24.569,4.681-30.9,3.4c-3.58-.734-.734-5.538,1.759-9.056.765-2.708-5.323-3.6-30.642-.841Z" transform="translate(-2139.611 -513.57)" fill="#fe5244"/>
          <circle id="椭圆_6" data-name="椭圆 6" cx="4.375" cy="4.375" r="4.375" transform="translate(26.328 29.123)" fill="#fff"/>
          <path id="路径_97" data-name="路径 97" d="M2145.158,610.015a4.758,4.758,0,1,1,4.758-4.758A4.758,4.758,0,0,1,2145.158,610.015Zm0-8.75a3.993,3.993,0,1,0,3.993,3.993A3.993,3.993,0,0,0,2145.158,601.265Z" transform="translate(-2114.455 -571.76)" fill="#fe5244"/>
          <path id="路径_98" data-name="路径 98" d="M2081.515,714.269l-1.407,3.3-1.652,3.855-.887,2.1-1.362,3.2a2,2,0,0,1-.122.26.016.016,0,0,1,0,.011.016.016,0,0,1-.011,0,2.555,2.555,0,0,1-2.2,1.224h-10.8a1.752,1.752,0,0,1-1.713-2.386l.78-1.836,1.729-4.054,1.484-3.488,1.3-3.075a2.521,2.521,0,0,1,2.341-1.484h10.8A1.735,1.735,0,0,1,2081.515,714.269Z" transform="translate(-2047.385 -666.116)" fill="#e57281"/>
          <path id="路径_99" data-name="路径 99" d="M2102.833,736.947h-.032a.306.306,0,0,1-.273-.336,1.431,1.431,0,0,0-.363-1.108,1.447,1.447,0,0,0-1.092-.482h-10.311a2.092,2.092,0,0,0-1.576.691.306.306,0,1,1-.458-.4,2.7,2.7,0,0,1,2.035-.9h10.311a2.06,2.06,0,0,1,2.064,2.266A.306.306,0,0,1,2102.833,736.947Z" transform="translate(-2070.615 -685.183)" fill="#9a3b82"/>
          <path id="路径_100" data-name="路径 100" d="M2093.621,760.7a.305.305,0,0,1-.3-.388,1.4,1.4,0,0,0-.234-1.224,1.454,1.454,0,0,0-1.169-.574h-10.311a2.109,2.109,0,0,0-1.5.612.306.306,0,0,1-.431-.431,2.7,2.7,0,0,1,1.929-.794h10.311a2.061,2.061,0,0,1,1.657.817,2,2,0,0,1,.337,1.759A.306.306,0,0,1,2093.621,760.7Z" transform="translate(-2062.963 -705.08)" fill="#9a3b82"/>
          <path id="路径_101" data-name="路径 101" d="M2082.766,787.523a.306.306,0,0,1-.287-.408,1.378,1.378,0,0,0-.176-1.271,1.457,1.457,0,0,0-1.2-.612h-10.311a2.167,2.167,0,0,0-1.459.575.306.306,0,1,1-.416-.447,2.742,2.742,0,0,1,1.875-.74H2081.1a2.054,2.054,0,0,1,1.7.874,1.98,1.98,0,0,1,.253,1.836A.306.306,0,0,1,2082.766,787.523Z" transform="translate(-2053.806 -727.712)" fill="#9a3b82"/>
          <path id="路径_102" data-name="路径 102" d="M2093.4,657.4v.275a5.076,5.076,0,0,1-5.079,5.079H2083V657.4Z" transform="translate(-2065.835 -619.955)" fill="#e57281"/>
        </g>
      </g>
      <g id="HEAD-4" data-name="HEAD" transform="translate(15.295 100.106)">
        <g id="CAP-2" data-name="CAP">
          <path id="路径_103" data-name="路径 103" d="M1282.014,1396.847c-.49.734-.994,1.423-1.5,2.05a4.841,4.841,0,0,1-1.576-.7,4.9,4.9,0,0,1-1.239-1.208c.4-.688.841-1.423,1.346-2.157,2.478-3.672,5.14-6.2,5.966-5.645S1284.492,1393.175,1282.014,1396.847Z" transform="translate(-1277.7 -1339.831)" fill="#ffcf2d"/>
          <path id="路径_104" data-name="路径 104" d="M1342.759,1079.4l-19.107,28.21a.422.422,0,0,0,.474.643l9.133-2.937a7.671,7.671,0,0,0-1.805,4.926v8.888a6.4,6.4,0,0,1-6.226,6.395,1.3,1.3,0,0,0-2.066-.291,1.211,1.211,0,0,0-.367.918,1.3,1.3,0,0,0,1.3,1.285h0a1.3,1.3,0,0,0,1.27-1.1,7.23,7.23,0,0,0,6.9-7.205v-8.888a6.885,6.885,0,0,1,2.754-5.492l18.373-5.905,23.59-19.444Zm-18.327,47.057a.476.476,0,1,1-.337-.811h0a.47.47,0,0,1,.474.474A.4.4,0,0,1,1324.432,1126.457Z" transform="translate(-1315.895 -1077.503)" fill="#3fb1b5"/>
          <path id="路径_105" data-name="路径 105" d="M1315.257,1097.046a.345.345,0,0,1-.229-.076.413.413,0,0,1-.107-.566l19.918-29.4h36.073a.413.413,0,0,1,0,.826h-35.645l-19.673,29.036A.384.384,0,0,1,1315.257,1097.046Z" transform="translate(-1309.168 -1067)" fill="#3fb1b5"/>
          <path id="路径_106" data-name="路径 106" d="M1436.395,1143.548l-2.295-1.04.122-.352a24.78,24.78,0,0,1,3.916-6.823,20.211,20.211,0,0,1,13.937-7.8l.4-.031.4,2.891-.811.107-.291-2.111a19.359,19.359,0,0,0-12.988,7.45,24.624,24.624,0,0,0-3.641,6.242l1.606.734Z" transform="translate(-1410.174 -1118.245)" fill="#fff"/>
        </g>
        <g id="HEAD-5" data-name="HEAD" transform="translate(26.374 12.177)">
          <g id="NECK-2" data-name="NECK" transform="translate(6.838 14.977)">
            <path id="路径_107" data-name="路径 107" d="M981.935,902.334,977.3,887.189l10.846-5.309,4.467,3.4,7.68,5.829,2.325,23.161Z" transform="translate(-977.3 -881.88)" fill="#e57281"/>
            <path id="路径_108" data-name="路径 108" d="M992.614,885.276h0l-8.276,18.45-2.4-1.392L977.3,887.189l10.846-5.309Z" transform="translate(-977.3 -881.88)" fill="#9a3b82"/>
          </g>
          <g id="HEAD-6" data-name="HEAD">
            <path id="路径_109" data-name="路径 109" d="M1463.058,1167.88c-.78.076-2.356-.719-4.146-1.851l-2.1,1.7a2.822,2.822,0,0,1-3.564-4.375l.857-.7c-2.249-1.683-4.008-3.136-4.008-3.136s3.9-11.718,16.369-12.912c0,0,6.609,13.661,7.052,14.962S1467.464,1167.436,1463.058,1167.88Z" transform="translate(-1450.1 -1146.6)" fill="#e57281"/>
          </g>
          <g id="HAIR-3" data-name="HAIR" transform="translate(0 4.911)">
            <path id="路径_110" data-name="路径 110" d="M1454.109,1189.837c-2.249-1.683-4.008-3.136-4.008-3.136a21.424,21.424,0,0,1,5.385-8C1451.355,1182.815,1457.52,1187.4,1454.109,1189.837Z" transform="translate(-1450.1 -1178.7)" fill="#ffcf2d"/>
          </g>
          <g id="FACE" transform="translate(3.926 3.277)">
            <path id="路径_111" data-name="路径 111" d="M1488.8,1183.553a.3.3,0,0,1-.107-.02.306.306,0,0,1-.18-.393,5.9,5.9,0,0,1,2.466-2.853.306.306,0,1,1,.294.535,5.385,5.385,0,0,0-2.186,2.532A.306.306,0,0,1,1488.8,1183.553Z" transform="translate(-1486.547 -1178.37)" fill="#9a3b82"/>
            <path id="路径_112" data-name="路径 112" d="M1540.532,1175.712a.305.305,0,0,1-.239-.115,7.4,7.4,0,0,1-1.469-5.486,2.231,2.231,0,0,1,.858-1.591c1.224-.751,3.561-.438,3.661-.424a.309.309,0,1,1-.084.612c-.023,0-2.217-.3-3.256.341a1.718,1.718,0,0,0-.577,1.172,6.748,6.748,0,0,0,1.343,5,.3.3,0,0,1-.239.491Z" transform="translate(-1529.114 -1168.02)" fill="#9a3b82"/>
            <path id="路径_113" data-name="路径 113" d="M1532.568,1230.492a5.108,5.108,0,0,1-1.835-.364.307.307,0,0,1,.22-.572,3.46,3.46,0,0,0,3.528-.28.306.306,0,0,1,.406.459A3.633,3.633,0,0,1,1532.568,1230.492Z" transform="translate(-1522.156 -1219.84)" fill="#9a3b82"/>
            <path id="路径_114" data-name="路径 114" d="M1529.2,1229.139a.306.306,0,0,1-.306-.294,3.147,3.147,0,0,1,.529-1.718.306.306,0,1,1,.5.352h0a2.555,2.555,0,0,0-.419,1.342.306.306,0,0,1-.291.318Z" transform="translate(-1520.762 -1217.974)" fill="#9a3b82"/>
            <ellipse id="椭圆_7" data-name="椭圆 7" cx="0.459" cy="0.903" rx="0.459" ry="0.903" transform="translate(5.008 5.537) rotate(-15.03)" fill="#9a3b82"/>
            <ellipse id="椭圆_8" data-name="椭圆 8" cx="0.413" cy="0.841" rx="0.413" ry="0.841" transform="translate(11.924 2.648) rotate(-15.03)" fill="#9a3b82"/>
            <path id="路径_115" data-name="路径 115" d="M1481.442,1261.794a.308.308,0,0,1-.188-.064l-3.534-2.754a.716.716,0,0,0-.918.044l-.212.2a.68.68,0,0,0,0,.993.306.306,0,1,1-.425.44,1.294,1.294,0,0,1,0-1.878l.219-.2a1.328,1.328,0,0,1,1.709-.081l3.535,2.754a.306.306,0,0,1-.188.547Z" transform="translate(-1475.76 -1244.419)" fill="#9a3b82"/>
          </g>
        </g>
      </g>
    </g>
  </g>
</svg>
