<svg xmlns="http://www.w3.org/2000/svg" width="30.269" height="28.251" viewBox="0 0 30.269 28.251">
  <path id="Icon_awesome-university" data-name="Icon awesome-university" d="M31.394,8.3V9.313a.5.5,0,0,1-.5.5H29.376v.757a.757.757,0,0,1-.757.757H3.9a.757.757,0,0,1-.757-.757V9.817H1.629a.5.5,0,0,1-.5-.5V8.3a.5.5,0,0,1,.312-.466l14.63-5.549a.5.5,0,0,1,.386,0l14.63,5.549A.5.5,0,0,1,31.394,8.3Zm-1.513,19.17H2.638a1.513,1.513,0,0,0-1.513,1.513V30a.5.5,0,0,0,.5.5h29.26a.5.5,0,0,0,.5-.5V28.988A1.513,1.513,0,0,0,29.881,27.474ZM6.17,12.34V24.447H3.9a.757.757,0,0,0-.757.757v1.261H29.376V25.2a.757.757,0,0,0-.757-.757h-2.27V12.34H22.313V24.447H18.277V12.34H14.242V24.447H10.206V12.34Z" transform="translate(-1.125 -2.25)" fill="#274c77"/>
</svg>
