<svg xmlns="http://www.w3.org/2000/svg" width="17" height="19.429" viewBox="0 0 17 19.429">
  <path id="Icon_metro-file-zip" data-name="Icon metro-file-zip" d="M20.7,6.274a17.2,17.2,0,0,0-1.654-1.892,17.208,17.208,0,0,0-1.892-1.654,3.026,3.026,0,0,0-1.725-.8H6.017A1.52,1.52,0,0,0,4.5,3.446V19.839a1.52,1.52,0,0,0,1.518,1.518H19.981A1.52,1.52,0,0,0,21.5,19.839V8a3.026,3.026,0,0,0-.8-1.725ZM18.186,5.241a16.561,16.561,0,0,1,1.377,1.544H16.642V3.864A16.554,16.554,0,0,1,18.186,5.241Zm2.1,14.6a.308.308,0,0,1-.3.3H6.017a.308.308,0,0,1-.3-.3V3.446a.308.308,0,0,1,.3-.3h9.411v4.25A.607.607,0,0,0,16.034,8h4.25ZM8.142,3.142H10.57V4.357H8.142ZM10.57,4.357H13V5.571H10.57ZM8.142,5.571H10.57V6.785H8.142V5.571ZM10.57,6.785H13V8H10.57ZM8.142,8H10.57V9.214H8.142ZM10.57,9.214H13v1.214H10.57ZM8.142,10.428H10.57v1.214H8.142V10.428Zm2.429,1.214H13v1.214H10.57ZM8.142,18.017a.913.913,0,0,0,.911.911h3.036A.913.913,0,0,0,13,18.017V14.982a.913.913,0,0,0-.911-.911H10.57V12.857H8.142v5.161ZM11.784,16.5v1.214H9.356V16.5Z" transform="translate(-4.499 -1.928)" fill="#2699fb"/>
</svg>
