<svg id="Icon_awesome-zhihu" data-name="Icon awesome-zhihu" xmlns="http://www.w3.org/2000/svg" width="29.753" height="13.46" viewBox="0 0 29.753 13.46">
  <path id="Icon_awesome-zhihu-2" data-name="Icon awesome-zhihu" d="M7.928,9.536V19.65H9.018l.358,1.226,1.953-1.226h2.3V9.536Zm4.544,9.016h-1.3l-1.3.814-.236-.812-.553,0V10.634h3.385ZM6.965,14.164H4.533c.081-1.26.1-2.4.1-3.415H7.013S7.1,9.7,6.614,9.712H2.5q.243-.915.61-1.891a1.664,1.664,0,0,0-1.5,1A28.39,28.39,0,0,1,.183,12.455,1.972,1.972,0,0,0,1.9,11.423c.1-.274.117-.31.239-.675H3.476c0,.488-.056,3.109-.078,3.414H.968c-.546,0-.723,1.1-.723,1.1H3.294A8.052,8.052,0,0,1,0,21.075a2.649,2.649,0,0,0,2.371-.46A6.873,6.873,0,0,0,4.026,17.4l2.509,3.019s.368-1.25-.058-1.859c-.352-.415-1.3-1.537-1.71-1.944l-.68.54a8.2,8.2,0,0,0,.366-1.891H7.318s0-1.1-.353-1.1h0Zm19.155-.074c.968-1.192,2.091-2.723,2.091-2.723s-.867-.688-1.273-.189c-.279.379-1.712,2.241-1.712,2.241l.894.671Zm-6.978-2.747c-.419-.384-1.2.1-1.2.1S19.775,14,19.85,14.112l.9-.638a22.749,22.749,0,0,0-1.611-2.132h0ZM29.753,14.66c-.92,0-6.086.043-6.093.043v-4.7q.335,0,1.062-.056,2.851-.168,4.08-.224s.568-1.264-.027-1.555a4.908,4.908,0,0,0-1.077.213s-7.681.767-10.8.839a1.154,1.154,0,0,0,.734.909,7.985,7.985,0,0,0,2.285.041q1.731-.112,2.627-.113V14.7h-6.2a1.223,1.223,0,0,0,1.186,1.062h5.018v3.3a.987.987,0,0,1-1.138.982c-.655.005-1.212-.053-1.938-.084a2.136,2.136,0,0,0,.9,1.015,2.435,2.435,0,0,0,1.21.305,1.887,1.887,0,0,0,2.087-2.106V15.766h5.688c.45,0,.4-1.106.4-1.106h0Z" transform="translate(0 -7.821)" fill="#5a93d5"/>
</svg>
