<svg xmlns="http://www.w3.org/2000/svg" width="25.264" height="20" viewBox="0 0 25.264 20">
  <path id="Icon_map-art-gallery" data-name="Icon map-art-gallery" d="M11.358,4.32C4.709,4.32.72,9.653.72,12.32s1.33,4.667,3.989,4.667,3.99.666,3.99,2.666a4.55,4.55,0,0,0,4.654,4.666c8.643,0,12.632-4.666,12.632-9.333C25.984,6.987,19.334,4.32,11.358,4.32ZM9.7,6.987A1.667,1.667,0,1,1,8.033,8.653,1.664,1.664,0,0,1,9.7,6.987Zm5.318,0a1.667,1.667,0,1,1-1.662,1.666,1.664,1.664,0,0,1,1.662-1.666Zm5.319,2.666a1.667,1.667,0,1,1-1.662,1.667A1.664,1.664,0,0,1,20.333,9.653ZM5.042,10.987A1.666,1.666,0,1,1,3.38,12.653,1.663,1.663,0,0,1,5.042,10.987Zm8.31,6.666a2,2,0,1,1-1.994,2,2,2,0,0,1,1.994-2Z" transform="translate(-0.72 -4.32)" fill="#9c5d5d"/>
</svg>
