<svg xmlns="http://www.w3.org/2000/svg" width="30" height="20.956" viewBox="0 0 30 20.956">
  <path id="Icon_metro-books" data-name="Icon metro-books" d="M8.684,8.571H3.445a.876.876,0,0,0-.873.873v19.21a.876.876,0,0,0,.873.873H8.684a.876.876,0,0,0,.873-.873V9.445a.876.876,0,0,0-.873-.873ZM7.81,13.81H4.318V12.064H7.81V13.81Zm9.6-5.239H12.176a.876.876,0,0,0-.873.873v19.21a.876.876,0,0,0,.873.873h5.239a.876.876,0,0,0,.873-.873V9.445a.876.876,0,0,0-.873-.873Zm-.873,5.239H13.049V12.064h3.493Zm6.906-3.889-4.679,2.357a.876.876,0,0,0-.387,1.173l7.858,15.6a.876.876,0,0,0,1.173.387l4.679-2.357a.876.876,0,0,0,.387-1.173l-7.858-15.6a.876.876,0,0,0-1.173-.387Zm4.445,18.733a.873.873,0,1,1-.873-.873A.873.873,0,0,1,27.893,28.654Z" transform="translate(-2.571 -8.571)" fill="#274c77"/>
</svg>
