<svg id="Icon_awesome-linkedin" data-name="Icon awesome-linkedin" xmlns="http://www.w3.org/2000/svg" width="44.576" height="44.576" viewBox="0 0 44.576 44.576">
  <path id="Icon_awesome-linkedin-2" data-name="Icon awesome-linkedin" d="M41.392,2.25H3.174A3.2,3.2,0,0,0,0,5.464V43.612a3.2,3.2,0,0,0,3.174,3.214H41.392a3.206,3.206,0,0,0,3.184-3.214V5.464A3.206,3.206,0,0,0,41.392,2.25ZM13.472,40.458H6.866V19.185h6.617V40.458Zm-3.3-24.179A3.831,3.831,0,1,1,14,12.449a3.832,3.832,0,0,1-3.831,3.831ZM38.238,40.458H31.631V30.11c0-2.468-.05-5.642-3.433-5.642-3.443,0-3.97,2.687-3.97,5.463V40.458H17.622V19.185H23.96V22.09h.09a6.959,6.959,0,0,1,6.259-3.433c6.686,0,7.93,4.408,7.93,10.139Z" transform="translate(0 -2.25)" fill="#274c77"/>
</svg>
