<svg xmlns="http://www.w3.org/2000/svg" width="575" height="461.495" viewBox="0 0 575 461.495">
  <g id="teaching" transform="translate(0 -0.019)">
    <g id="LAMP" transform="translate(124.487 0.019)">
      <path id="路径_116" data-name="路径 116" d="M959.851,75.14l35.305,33.868,35.484,190.92H697.8Z" transform="translate(-697.8 -61.82)" fill="#ffcf2d"/>
      <path id="路径_117" data-name="路径 117" d="M3091.712,493.257,3056.3,459.282l5.922-6.118c8.724-9.008,24.441-7.979,33.5.674h0c9.062,8.671,10.651,24.293,1.927,33.3Z" transform="translate(-2794.053 -446.334)" fill="#fff"/>
      <path id="路径_118" data-name="路径 118" d="M3088.243,491.553l-36.183-34.709,6.293-6.5a22.211,22.211,0,0,1,17.029-6.449A26.525,26.525,0,0,1,3092.614,451a26.121,26.121,0,0,1,7.8,16.868,22.027,22.027,0,0,1-5.855,17.184Zm-34.67-34.74,34.642,33.237,5.569-5.734a20.952,20.952,0,0,0,5.558-16.37,25.081,25.081,0,0,0-7.47-16.179c-9.248-8.829-24.55-9.151-32.747-.688Z" transform="translate(-2790.569 -443.879)" fill="#ffcf2d"/>
      <path id="路径_119" data-name="路径 119" d="M3122.42,514.491a.535.535,0,0,1-.371-.149l-35.43-33.974a.529.529,0,0,1,0-.741.538.538,0,0,1,.745-.025l35.43,33.975a.531.531,0,0,1-.371.915Z" transform="translate(-2818.837 -473.154)" fill="#ffcf2d"/>
      <path id="路径_120" data-name="路径 120" d="M3354.275,695.2a.534.534,0,0,1-.449-.243.528.528,0,0,1-.04-.507L3403.478,584.3l-97.134-117.533v-.011a11.495,11.495,0,0,0-16.173-2.287l-3.96,3.014a.537.537,0,0,1-.728-.116.529.529,0,0,1,.078-.729l3.96-3.014a12.569,12.569,0,0,1,17.678,2.483l97.537,118.018-.135.3-49.827,110.452A.536.536,0,0,1,3354.275,695.2Z" transform="translate(-2982.259 -458.014)" fill="#3fb1b5"/>
      <ellipse id="椭圆_9" data-name="椭圆 9" cx="5.459" cy="5.426" rx="5.459" ry="5.426" transform="translate(414.797 121.361)" fill="#fff"/>
      <path id="路径_121" data-name="路径 121" d="M3914.394,1137.216a5.958,5.958,0,1,1,5.994-5.958A5.976,5.976,0,0,1,3914.394,1137.216Zm0-10.852a4.894,4.894,0,1,0,4.924,4.894,4.909,4.909,0,0,0-4.924-4.894Z" transform="translate(-3494.139 -1004.471)" fill="#ffcf2d"/>
      <path id="路径_122" data-name="路径 122" d="M3530.162,1708.9h26.6a13.8,13.8,0,0,1,13.844,13.758v.392H3516.3v-.39A13.831,13.831,0,0,1,3530.162,1708.9Z" transform="translate(-3171.989 -1484.588)" fill="#fff"/>
      <path id="路径_123" data-name="路径 123" d="M3568.675,1721.114H3513.3v-.922a14.383,14.383,0,0,1,14.4-14.292h26.6a14.353,14.353,0,0,1,14.379,14.292Zm-54.3-1.064H3567.6a13.286,13.286,0,0,0-13.309-13.086h-26.6A13.314,13.314,0,0,0,3514.372,1720.05Z" transform="translate(-3169.525 -1482.119)" fill="#ffcf2d"/>
    </g>
    <g id="COMPUTER" transform="translate(127.372 57.847)">
      <g id="COMPUTER-2" data-name="COMPUTER" transform="translate(46.05)">
        <path id="路径_124" data-name="路径 124" d="M2043.445,912.834H1875.053a11.478,11.478,0,0,1-8.1-3.331,11.337,11.337,0,0,1-3.351-8.053V784.384a11.338,11.338,0,0,1,3.351-8.053,11.478,11.478,0,0,1,8.1-3.331h168.391a11.477,11.477,0,0,1,8.1,3.331,11.34,11.34,0,0,1,3.352,8.053V901.433a11.346,11.346,0,0,1-3.347,8.063A11.485,11.485,0,0,1,2043.445,912.834Z" transform="translate(-1863.065 -772.468)" fill="#fff"/>
        <path id="路径_125" data-name="路径 125" d="M2040.98,910.9H1872.589a11.967,11.967,0,0,1-11.989-11.916V781.916A11.966,11.966,0,0,1,1872.589,770H2040.98a11.966,11.966,0,0,1,11.989,11.916V898.964a11.873,11.873,0,0,1-3.5,8.439A12.022,12.022,0,0,1,2040.98,910.9ZM1872.589,771.064a10.9,10.9,0,0,0-10.918,10.852V898.982a10.9,10.9,0,0,0,10.918,10.852H2040.98a10.947,10.947,0,0,0,7.728-3.183,10.812,10.812,0,0,0,3.191-7.685V781.916a10.9,10.9,0,0,0-10.918-10.852Z" transform="translate(-1860.6 -770)" fill="#3fb1b5"/>
        <path id="路径_126" data-name="路径 126" d="M2083.646,939.3H1916.878a4.468,4.468,0,0,1-4.478-4.451v-112a4.468,4.468,0,0,1,4.478-4.451h166.767a4.468,4.468,0,0,1,4.478,4.451V934.828a4.431,4.431,0,0,1-1.3,3.16A4.485,4.485,0,0,1,2083.646,939.3Z" transform="translate(-1903.159 -809.818)" fill="#66b0f0"/>
        <path id="路径_127" data-name="路径 127" d="M2081.181,937.36H1914.413a5.006,5.006,0,0,1-5.013-4.983V820.383a5,5,0,0,1,5.013-4.983h166.768a5.005,5.005,0,0,1,5.013,4.983V932.36a4.961,4.961,0,0,1-1.46,3.537A5.02,5.02,0,0,1,2081.181,937.36Zm-166.768-120.9a3.935,3.935,0,0,0-3.943,3.919V932.378a3.935,3.935,0,0,0,3.943,3.919h166.768a3.948,3.948,0,0,0,2.794-1.151,3.9,3.9,0,0,0,1.148-2.782V820.383a3.934,3.934,0,0,0-3.942-3.919Z" transform="translate(-1900.694 -807.35)" fill="#66b0f0"/>
        <path id="路径_128" data-name="路径 128" d="M1949.145,848.809h-2.64a2.1,2.1,0,0,1-2.105-2.092v-2.624a2.1,2.1,0,0,1,2.105-2.093h2.64a2.1,2.1,0,0,1,2.105,2.093v2.624A2.1,2.1,0,0,1,1949.145,848.809Zm-2.64-5.745a1.031,1.031,0,0,0-1.035,1.028v2.624a1.031,1.031,0,0,0,1.035,1.028h2.64a1.041,1.041,0,0,0,1.035-1.039v-2.614a1.032,1.032,0,0,0-1.035-1.029Z" transform="translate(-1929.45 -829.233)" fill="#fff"/>
        <path id="路径_129" data-name="路径 129" d="M2016.445,848.809h-2.64a2.1,2.1,0,0,1-2.105-2.092v-2.624a2.1,2.1,0,0,1,2.105-2.093h2.64a2.1,2.1,0,0,1,2.105,2.093v2.624A2.1,2.1,0,0,1,2016.445,848.809Zm-2.64-5.745a1.032,1.032,0,0,0-1.035,1.028v2.624a1.032,1.032,0,0,0,1.035,1.028h2.64a1.032,1.032,0,0,0,1.035-1.028v-2.624a1.032,1.032,0,0,0-1.035-1.029Z" transform="translate(-1984.744 -829.233)" fill="#fff"/>
        <path id="路径_130" data-name="路径 130" d="M2083.746,848.809H2081.1a2.1,2.1,0,0,1-2.1-2.092v-2.624a2.1,2.1,0,0,1,2.1-2.093h2.641a2.1,2.1,0,0,1,2.1,2.093v2.624A2.1,2.1,0,0,1,2083.746,848.809Zm-2.641-5.745a1.032,1.032,0,0,0-1.035,1.029v2.624a1.032,1.032,0,0,0,1.035,1.028h2.641a1.027,1.027,0,0,0,.735-.3,1.012,1.012,0,0,0,.3-.73v-2.624a1.031,1.031,0,0,0-1.035-1.029Z" transform="translate(-2040.038 -829.233)" fill="#fff"/>
        <path id="路径_131" data-name="路径 131" d="M1409.465,1157.655H1344.1l12.827-39.915h39.694Z" transform="translate(-1277.735 -977.374)" fill="#fff"/>
        <path id="路径_132" data-name="路径 132" d="M2295.322,1599.579H2228.49l13.169-40.978h40.475Zm-65.365-1.064h63.9l-12.5-38.851h-38.913Z" transform="translate(-2162.859 -1418.766)" fill="#3fb1b5"/>
        <path id="路径_133" data-name="路径 133" d="M1372.9,1141.678l7.689-23.938h39.694Z" transform="translate(-1301.397 -977.374)" fill="#3fb1b5"/>
        <path id="路径_134" data-name="路径 134" d="M2644.3,879.266h-31.773a5.911,5.911,0,0,1-5.923-5.887V852.987a5.911,5.911,0,0,1,5.923-5.887H2644.3a5.91,5.91,0,0,1,5.923,5.887v20.392a5.911,5.911,0,0,1-5.923,5.887Zm-31.773-31.1a4.843,4.843,0,0,0-4.852,4.823v20.392a4.843,4.843,0,0,0,4.852,4.823H2644.3a4.843,4.843,0,0,0,4.853-4.823V852.987a4.843,4.843,0,0,0-4.853-4.823Z" transform="translate(-2473.514 -833.429)" fill="#fff"/>
        <path id="路径_135" data-name="路径 135" d="M2682.28,889.164h-24.245a.532.532,0,1,1,0-1.064h24.245a.532.532,0,1,1,0,1.064Z" transform="translate(-2515.333 -867.159)" fill="#fff"/>
        <path id="路径_136" data-name="路径 136" d="M2682.28,920.164h-24.245a.532.532,0,1,1,0-1.064h24.245a.532.532,0,1,1,0,1.064Z" transform="translate(-2515.333 -892.662)" fill="#fff"/>
        <path id="路径_137" data-name="路径 137" d="M2682.28,951.164h-24.245a.532.532,0,1,1,0-1.064h24.245a.532.532,0,1,1,0,1.064Z" transform="translate(-2515.333 -918.165)" fill="#fff"/>
        <path id="路径_138" data-name="路径 138" d="M2682.28,982.164h-24.245a.532.532,0,1,1,0-1.064h24.245a.532.532,0,1,1,0,1.064Z" transform="translate(-2515.333 -943.668)" fill="#fff"/>
      </g>
      <g id="TEACHER" transform="translate(0 15.178)">
        <g id="SHIRT" transform="translate(11.739 42.615)">
          <path id="路径_139" data-name="路径 139" d="M1884.137,1169.153H1757.848l-7.4,10.551a21.341,21.341,0,0,1-34.645.337l-45.1-61.654c1.891,2.341,10.544-.266,18.785-5.657,8.367-5.479,13.773-12.377,12.078-14.93l31.273,39.613,9.58-16.81a18.913,18.913,0,0,1,12.042-8.812l32.594-6.862h28.1l30.97,6.791a18.973,18.973,0,0,1,12.542,9.558Z" transform="translate(-1670.267 -1097.469)" fill="#fff"/>
          <path id="路径_140" data-name="路径 140" d="M1730.992,1187.744a21.592,21.592,0,0,1-17.622-8.93l-45.1-61.654.844-.649c1.511,1.871,9.56-.2,18.073-5.768a42.474,42.474,0,0,0,9.687-8.449c2.073-2.585,2.908-4.733,2.239-5.743l.867-.621,30.781,38.989,9.186-16.12a19.527,19.527,0,0,1,12.386-9.068l32.667-6.873h28.212l.057.012,30.971,6.791a19.509,19.509,0,0,1,12.9,9.827l25.891,48.658h-126.9l-7.245,10.324a21.6,21.6,0,0,1-17.674,9.272Zm-60.656-69.566,43.9,60.012a20.53,20.53,0,0,0,16.755,8.49h.207a20.537,20.537,0,0,0,16.807-8.818l7.562-10.777h125.681l-25.06-47.1A18.444,18.444,0,0,0,1844,1110.7l-30.9-6.779h-27.984l-32.538,6.851a18.44,18.44,0,0,0-11.691,8.561l-9.971,17.493-30.568-38.721a11.859,11.859,0,0,1-2.623,4.855,43.514,43.514,0,0,1-9.937,8.676c-5.652,3.7-12.458,6.6-16.506,6.6a7.145,7.145,0,0,1-.94-.059Z" transform="translate(-1668.27 -1095.93)" fill="#3fb1b5"/>
          <path id="路径_141" data-name="路径 141" d="M2629,1412.467a.534.534,0,0,1-.478-.291l-8.974-17.608a.531.531,0,0,1,.235-.716.538.538,0,0,1,.721.234l8.973,17.608a.53.53,0,0,1-.021.52A.536.536,0,0,1,2629,1412.467Z" transform="translate(-2449.796 -1340.977)" fill="#3fb1b5"/>
          <path id="路径_142" data-name="路径 142" d="M2152.731,1422.589a.536.536,0,0,1-.458-.253.529.529,0,0,1-.021-.52l8.884-17.431a.538.538,0,0,1,.721-.234.531.531,0,0,1,.235.716l-8.884,17.431A.535.535,0,0,1,2152.731,1422.589Z" transform="translate(-2065.862 -1349.451)" fill="#3fb1b5"/>
          <path id="路径_143" data-name="路径 143" d="M1968.736,1258.494a.536.536,0,0,1-.421-.2l-20.355-25.871a.53.53,0,0,1,.1-.734.537.537,0,0,1,.741.078l20.356,25.871a.532.532,0,0,1-.421.86Z" transform="translate(-1897.978 -1207.52)" fill="#3fb1b5"/>
          <path id="路径_144" data-name="路径 144" d="M2426.23,1169.737l-7.835-9.48a.528.528,0,0,1-.1-.532.536.536,0,0,1,.926-.142l7.147,8.642,16.355-13.8a.538.538,0,0,1,.755.062.53.53,0,0,1-.062.75Z" transform="translate(-2284.465 -1143.949)" fill="#3fb1b5"/>
          <path id="路径_145" data-name="路径 145" d="M2261.066,1170.016l-18.849-14.836a.53.53,0,0,1,.123-.929.537.537,0,0,1,.54.1l18.008,14.173,6.947-8.818a.536.536,0,0,1,.929.122.529.529,0,0,1-.087.534Z" transform="translate(-2139.642 -1143.881)" fill="#3fb1b5"/>
          <path id="路径_146" data-name="路径 146" d="M1704.26,1162.15a3.756,3.756,0,0,1-3.043-1.078.53.53,0,0,1,.082-.748.538.538,0,0,1,.753.082c.757.934,3.194.887,6.521-.106a47.012,47.012,0,0,0,11.73-5.731c8.429-5.555,13.38-12.288,12-14.374a.528.528,0,0,1-.062-.553.537.537,0,0,1,.954-.028c.965,1.465.146,3.97-2.309,7.057a43.946,43.946,0,0,1-9.99,8.784C1715.208,1159.2,1708.354,1162.15,1704.26,1162.15Z" transform="translate(-1695.242 -1131.639)" fill="#3fb1b5"/>
          <path id="路径_147" data-name="路径 147" d="M1835.351,1147.271a2.536,2.536,0,1,1,2.551-2.536A2.543,2.543,0,0,1,1835.351,1147.271Zm0-4.007a1.472,1.472,0,1,0,1.481,1.472A1.476,1.476,0,0,0,1835.351,1143.264Z" transform="translate(-1803.448 -1133.996)" fill="#3fb1b5"/>
          <path id="路径_148" data-name="路径 148" d="M2393.351,1218.271a2.536,2.536,0,1,1,2.551-2.536A2.543,2.543,0,0,1,2393.351,1218.271Zm0-4.007a1.472,1.472,0,1,0,1.481,1.472A1.476,1.476,0,0,0,2393.351,1214.264Z" transform="translate(-2261.901 -1192.406)" fill="#3fb1b5"/>
          <path id="路径_149" data-name="路径 149" d="M2393.351,1309.271a2.536,2.536,0,1,1,2.551-2.536A2.543,2.543,0,0,1,2393.351,1309.271Zm0-4.007a1.472,1.472,0,1,0,1.481,1.472A1.476,1.476,0,0,0,2393.351,1305.264Z" transform="translate(-2261.901 -1267.27)" fill="#3fb1b5"/>
          <path id="路径_150" data-name="路径 150" d="M1225.6,1067.742l8.046-11.4v11.4Z" transform="translate(-1146.064 -984.655)" fill="#3fb1b5"/>
        </g>
        <g id="ARM">
          <path id="路径_151" data-name="路径 151" d="M1686.68,1105.3c-8.242,5.391-16.895,8-18.786,5.656a.732.732,0,0,1-.089-.124,2.581,2.581,0,0,1,0-2.358c1.231-3.209,6.316-8.174,12.773-12.395,5.138-3.369,10.2-5.709,13.719-6.437,2.034-.408,3.55-.284,4.281.5h0l.178.213h0C1700.434,1092.905,1695.047,1099.821,1686.68,1105.3Z" transform="translate(-1655.918 -1047.955)" fill="#fe5244"/>
          <path id="路径_152" data-name="路径 152" d="M1633.23,912.945a44.614,44.614,0,0,1-13.166,6.1h0l-16.288-22.839a7.032,7.032,0,0,1,1.712-9.859l14.664-10.249-8.313-14.061a4.27,4.27,0,0,1,3.693-6.437,4.3,4.3,0,0,1,3.622,1.968l25.993,40.181.178.284h0C1646.985,900.55,1641.6,907.466,1633.23,912.945Z" transform="translate(-1602.469 -855.6)" fill="#e57281"/>
          <path id="路径_153" data-name="路径 153" d="M1674.439,989.6a3.465,3.465,0,0,1-.7-.073,3.359,3.359,0,0,1-2.141-1.458l-8.576-12.767a.531.531,0,0,1,.148-.74.539.539,0,0,1,.744.147l8.581,12.767a2.328,2.328,0,0,0,3.211.668l2.019-1.314a2.306,2.306,0,0,0,.7-3.171l-9.079-13.987a.53.53,0,0,1-.069-.559.537.537,0,0,1,.961-.019l9.081,13.99a3.368,3.368,0,0,1-1.015,4.637l-2.014,1.311A3.369,3.369,0,0,1,1674.439,989.6Z" transform="translate(-1652.146 -948.731)" fill="#9a3b82"/>
          <path id="路径_154" data-name="路径 154" d="M1676.658,1079.079a3.407,3.407,0,0,1-2.854-1.513.53.53,0,0,1,.167-.712.537.537,0,0,1,.725.127,2.344,2.344,0,0,0,3.19.677l1.839-1.154a2.325,2.325,0,0,0,.694-3.231.534.534,0,1,1,.892-.582,3.385,3.385,0,0,1-1.015,4.711l-1.825,1.144A3.389,3.389,0,0,1,1676.658,1079.079Z" transform="translate(-1661.017 -1033.969)" fill="#9a3b82"/>
          <path id="路径_155" data-name="路径 155" d="M1617.749,1045a3.422,3.422,0,0,1-2.783-1.429l-4.872-6.827a.531.531,0,0,1,.127-.743.538.538,0,0,1,.747.126l4.87,6.827a2.328,2.328,0,0,0,3.145.622l.03-.018,1.7-.933a2.277,2.277,0,0,0,1.026-1.447,2.3,2.3,0,0,0-.328-1.773l-8.4-12.412a.532.532,0,0,1,.147-.74.539.539,0,0,1,.745.146l8.4,12.412a3.356,3.356,0,0,1-1.035,4.72l-.025.014-1.7.931A3.375,3.375,0,0,1,1617.749,1045Zm3.237-1.915Z" transform="translate(-1608.652 -995.921)" fill="#9a3b82"/>
          <path id="路径_156" data-name="路径 156" d="M1709.355,1000.118l-4.264-6.579a4.655,4.655,0,0,0-6.512-1.33L1688,999.337s3.068,5.479,10.526,1.135l2.5,3.954h0a10.712,10.712,0,0,0-3.247,14.983Z" transform="translate(-1672.741 -967.331)" fill="#e57281"/>
          <path id="路径_157" data-name="路径 157" d="M1694.58,1018.355a.536.536,0,0,1-.448-.24,11.24,11.24,0,0,1,2.965-15.427l-1.95-3.085c-2.56,1.394-4.9,1.816-6.957,1.255a6.574,6.574,0,0,1-3.845-2.837l-.236-.42,10.422-7.226a5.192,5.192,0,0,1,7.268,1.479l4.264,6.579a.531.531,0,0,1-.19.681.538.538,0,0,1-.7-.106l-4.264-6.579a4.129,4.129,0,0,0-5.762-1.177l-9.582,6.644a5.63,5.63,0,0,0,2.933,1.95c1.894.507,4.1.034,6.578-1.406l.447-.261,3.058,4.841-.452.282a10.184,10.184,0,0,0-3.084,14.242.53.53,0,0,1,.024.545.536.536,0,0,1-.472.279Z" transform="translate(-1669.545 -965.745)" fill="#9a3b82"/>
          <path id="路径_158" data-name="路径 158" d="M1695.616,1105.382a44.62,44.62,0,0,1-13.166,6.1h0l-4.05-5.674a47.47,47.47,0,0,1,11.115-9.629c5.138-3.369,10.2-5.71,13.719-6.437,2.034-.408,3.55-.284,4.281.5h0l.179.213h0c.018.035.035.053.053.089l.035.071c.018.036.036.053.054.089C1709.049,1093.413,1703.715,1100.063,1695.616,1105.382Z" transform="translate(-1664.854 -1048.037)" fill="#9a3b82"/>
        </g>
        <g id="HEAD" transform="translate(120.621 2.622)">
          <path id="路径_159" data-name="路径 159" d="M2350.652,1050v15.586c0,4.521-6.315,8.174-14.076,8.174s-14.076-3.653-14.076-8.174V1050Z" transform="translate(-2314.669 -1018.151)" fill="#e57281"/>
          <path id="路径_160" data-name="路径 160" d="M2326.539,1071.367c-2.551-1.472-4.139-3.529-4.139-5.781V1050h28.17v4.327a11.012,11.012,0,0,1-6.922,10.2Z" transform="translate(-2314.586 -1018.151)" fill="#9a3b82"/>
          <path id="路径_161" data-name="路径 161" d="M2322.433,966.81v.266a4.859,4.859,0,0,1-1.436,3.449,4.919,4.919,0,0,1-3.47,1.427H2314.3a10.076,10.076,0,0,1-9.794,7.607h-7.992a10.038,10.038,0,0,1-9.777-7.607h-3.229a4.917,4.917,0,0,1-3.47-1.427,4.856,4.856,0,0,1-1.436-3.449v-.266a4.856,4.856,0,0,1,1.436-3.449,4.917,4.917,0,0,1,3.47-1.427h2.926v-3.848a8.173,8.173,0,0,1,7.029-8.086,9.683,9.683,0,0,0,8.9,4.735,28.14,28.14,0,0,0,6.833-1.135,4.253,4.253,0,0,1,3.258.38,4.206,4.206,0,0,1,2,2.581,8.394,8.394,0,0,1,.143,1.507v3.848h2.926a4.914,4.914,0,0,1,4.906,4.894Z" transform="translate(-2278.6 -935.883)" fill="#e57281"/>
          <path id="路径_162" data-name="路径 162" d="M2332.1,896.419h-2.248v-4.273a4.228,4.228,0,0,0-5.406-4.043,27.965,27.965,0,0,1-6.832,1.135,9.681,9.681,0,0,1-8.9-4.734,8.174,8.174,0,0,0-7.03,8.086v3.848h-2.8s-3.21-11.543-.8-14.806c2.373-3.21,5.227-1.809,5.227-1.809s-1.712-9.611,7.85-9.433,21.961,11.189,22.871,13.21C2335.449,886.7,2332.1,896.419,2332.1,896.419Z" transform="translate(-2293.865 -870.386)" fill="#9a3b82"/>
          <path id="路径_163" data-name="路径 163" d="M2484.346,1032.409a.445.445,0,0,1-.446-.443,3.882,3.882,0,0,1,3.889-3.866.443.443,0,1,1,0,.887,2.992,2.992,0,0,0-3,2.979A.445.445,0,0,1,2484.346,1032.409Z" transform="translate(-2447.275 -1000.134)" fill="#9a3b82"/>
          <path id="路径_164" data-name="路径 164" d="M2298.689,1032.409a.444.444,0,0,1-.446-.443,2.992,2.992,0,0,0-3-2.979.443.443,0,1,1,0-.887,3.883,3.883,0,0,1,3.889,3.866A.445.445,0,0,1,2298.689,1032.409Z" transform="translate(-2291.91 -1000.134)" fill="#9a3b82"/>
          <path id="路径_165" data-name="路径 165" d="M2426.507,989.355a.448.448,0,0,1-.262-.085h0a5.723,5.723,0,0,0-5.329-.463.447.447,0,0,1-.583-.239.442.442,0,0,1,.24-.58,6.626,6.626,0,0,1,6.2.566.443.443,0,0,1-.264.8Z" transform="translate(-2395.019 -966.709)" fill="#9a3b82"/>
          <path id="路径_166" data-name="路径 166" d="M2344.642,989.355a.442.442,0,0,1-.266-.8,6.624,6.624,0,0,1,6.2-.566.443.443,0,0,1,.236.582.447.447,0,0,1-.586.235,5.722,5.722,0,0,0-5.329.463A.449.449,0,0,1,2344.642,989.355Z" transform="translate(-2332.491 -966.71)" fill="#9a3b82"/>
          <path id="路径_167" data-name="路径 167" d="M2395.2,1069.689a7.042,7.042,0,0,1-2.414-.472.444.444,0,1,1,.307-.833c3.746,1.374,4.977-1.064,5.027-1.172a.447.447,0,0,1,.586-.2.443.443,0,0,1,.222.576A4.12,4.12,0,0,1,2395.2,1069.689Z" transform="translate(-2372.178 -1032.111)" fill="#9a3b82"/>
          <path id="路径_168" data-name="路径 168" d="M2393.043,1059.206c-.416,0-.854,0-1.229-.034a.444.444,0,1,1,.057-.887c1.052.068,2.676,0,2.7,0a.444.444,0,1,1,.04.887C2394.563,1059.176,2393.844,1059.206,2393.043,1059.206Z" transform="translate(-2371.272 -1024.967)" fill="#9a3b82"/>
          <ellipse id="椭圆_10" data-name="椭圆 10" cx="0.892" cy="1.489" rx="0.892" ry="1.489" transform="translate(27.723 26.618)" fill="#9a3b82"/>
          <ellipse id="椭圆_11" data-name="椭圆 11" cx="0.892" cy="1.489" rx="0.892" ry="1.489" transform="translate(14.932 26.618)" fill="#9a3b82"/>
          <path id="路径_169" data-name="路径 169" d="M2342.228,1011.573h-5.619a2.4,2.4,0,0,1-2.409-2.394v-5.586a2.4,2.4,0,0,1,2.409-2.394h5.619a2.4,2.4,0,0,1,2.409,2.394v5.586a2.313,2.313,0,0,1-.683,1.674A2.408,2.408,0,0,1,2342.228,1011.573Zm-5.619-9.487a1.513,1.513,0,0,0-1.516,1.507v5.586a1.513,1.513,0,0,0,1.516,1.507h5.619a1.521,1.521,0,0,0,1.091-.456,1.435,1.435,0,0,0,.426-1.044v-5.593a1.513,1.513,0,0,0-1.516-1.507Z" transform="translate(-2324.281 -978.004)" fill="#fff"/>
          <path id="路径_170" data-name="路径 170" d="M2419.328,1011.573h-5.619a2.4,2.4,0,0,1-2.409-2.394v-5.586a2.4,2.4,0,0,1,2.409-2.394h5.619a2.4,2.4,0,0,1,2.409,2.394v5.586A2.4,2.4,0,0,1,2419.328,1011.573Zm-5.619-9.487a1.514,1.514,0,0,0-1.516,1.507v5.586a1.513,1.513,0,0,0,1.516,1.507h5.619a1.514,1.514,0,0,0,1.517-1.507v-5.586a1.514,1.514,0,0,0-1.517-1.507Z" transform="translate(-2387.626 -978.004)" fill="#fff"/>
          <rect id="矩形_4" data-name="矩形 4" width="4.192" height="0.887" transform="translate(19.927 26.884)" fill="#fff"/>
        </g>
      </g>
      <g id="ICON" transform="translate(130.558 105.381)">
        <path id="路径_171" data-name="路径 171" d="M2357.546,1382.05h-19.5a3.735,3.735,0,0,1-3.746-3.724v-10.3a3.735,3.735,0,0,1,3.746-3.723h19.5a3.735,3.735,0,0,1,3.746,3.723v10.3A3.735,3.735,0,0,1,2357.546,1382.05Zm-19.5-16.686a2.668,2.668,0,0,0-2.676,2.66v10.3a2.668,2.668,0,0,0,2.676,2.66h19.5a2.668,2.668,0,0,0,2.676-2.66v-10.3a2.667,2.667,0,0,0-2.676-2.66Z" transform="translate(-2334.3 -1364.3)" fill="#66b0f0"/>
        <path id="路径_172" data-name="路径 172" d="M2373.51,1399.087h-6.6a1.9,1.9,0,0,1-1.909-1.9V1392.6a1.9,1.9,0,0,1,1.909-1.9h6.6a1.905,1.905,0,0,1,1.909,1.9v4.593A1.905,1.905,0,0,1,2373.51,1399.087Z" transform="translate(-2359.524 -1386.019)" fill="#66b0f0"/>
        <path id="路径_173" data-name="路径 173" d="M2435.225,1399.074l-2.033-1.348a2.05,2.05,0,0,1-.893-1.7V1394a2.049,2.049,0,0,1,.892-1.7l2.033-1.348a.718.718,0,0,1,.753-.022.709.709,0,0,1,.354.66v6.862a.708.708,0,0,1-.362.646A.717.717,0,0,1,2435.225,1399.074Z" transform="translate(-2414.816 -1386.13)" fill="#66b0f0"/>
      </g>
    </g>
    <g id="TABLE" transform="translate(67.827 237.95)">
      <path id="路径_174" data-name="路径 174" d="M1742.833,1786.764h-473.6a.532.532,0,1,1,0-1.064h473.6a.532.532,0,1,1,0,1.064Z" transform="translate(-1268.7 -1785.7)" fill="#3fb1b5"/>
      <path id="路径_175" data-name="路径 175" d="M1536.737,1806.2v218.919H1524.3v-41.671a7.067,7.067,0,0,0-7.083-7.039h-89a7.066,7.066,0,0,0-7.082,7.04v41.67H1408.7V1806.2Z" transform="translate(-1383.724 -1802.565)" fill="#fff"/>
      <path id="路径_176" data-name="路径 176" d="M1534.808,2023.182H1521.3v-42.2a6.535,6.535,0,0,0-6.547-6.508h-89a6.535,6.535,0,0,0-6.547,6.508v42.2h-13.5V1803.2h129.108Zm-12.434-1.064h11.364V1804.264H1406.77v217.855h11.364V1980.98a7.6,7.6,0,0,1,7.618-7.571h89a7.6,7.6,0,0,1,7.618,7.571Z" transform="translate(-1381.259 -1800.097)" fill="#3fb1b5"/>
      <path id="路径_177" data-name="路径 177" d="M648.612,1362.34v58.09L520.2,1525.527l.018-163.187Z" transform="translate(-495.224 -1358.705)" fill="#d0f0e4"/>
      <path id="路径_178" data-name="路径 178" d="M1572.478,1913.7h-89.735a7.228,7.228,0,0,1-7.243-7.2v-39.7a7.228,7.228,0,0,1,7.243-7.2h89.735a7.228,7.228,0,0,1,7.243,7.2v39.7A7.228,7.228,0,0,1,1572.478,1913.7Zm-89.735-53.036a6.161,6.161,0,0,0-6.173,6.135v39.7a6.161,6.161,0,0,0,6.173,6.135h89.735a6.161,6.161,0,0,0,6.172-6.135v-39.7a6.161,6.161,0,0,0-6.172-6.135Z" transform="translate(-1438.607 -1846.496)" fill="#3fb1b5"/>
      <path id="路径_179" data-name="路径 179" d="M795.109,1829.112H750.938L749.1,1816.54h44.19Z" transform="translate(-683.288 -1732.367)" fill="#ffcf2d"/>
      <path id="路径_180" data-name="路径 180" d="M1808.562,2219.5a10,10,0,0,0-7.053,2.9,9.875,9.875,0,0,0-2.919,7.01v9.912H1761v-9.912a9.876,9.876,0,0,1,2.919-7.01,10,10,0,0,1,7.053-2.9Z" transform="translate(-1673.174 -2142.579)" fill="#fff"/>
      <path id="路径_181" data-name="路径 181" d="M1796.659,2237.389H1758v-10.445a10.494,10.494,0,0,1,10.508-10.444H1806.1v1.064a9.427,9.427,0,0,0-9.437,9.38Zm-37.589-1.064h36.518v-9.38a10.456,10.456,0,0,1,5.887-9.381h-32.968a9.427,9.427,0,0,0-9.437,9.38Z" transform="translate(-1670.709 -2140.111)" fill="#3fb1b5"/>
      <path id="路径_182" data-name="路径 182" d="M1862.7,2226.753h-37.589a9.96,9.96,0,0,0-9.616-7.253h37.589A9.981,9.981,0,0,1,1862.7,2226.753Z" transform="translate(-1717.951 -2142.579)" fill="#fff"/>
      <path id="路径_183" data-name="路径 183" d="M1863.417,2224.816h-38.7l-.107-.389a9.446,9.446,0,0,0-9.1-6.863V2216.5H1853.1a10.546,10.546,0,0,1,10.131,7.641Zm-37.894-1.063h36.458a9.483,9.483,0,0,0-8.883-6.189h-32.97A10.453,10.453,0,0,1,1825.523,2223.753Z" transform="translate(-1717.959 -2140.111)" fill="#3fb1b5"/>
      <path id="路径_184" data-name="路径 184" d="M1572.478,2382.4h-89.735a7.229,7.229,0,0,1-7.243-7.2v-39.7a7.228,7.228,0,0,1,7.243-7.2h89.735a7.228,7.228,0,0,1,7.243,7.2v39.7A7.228,7.228,0,0,1,1572.478,2382.4Zm-89.735-53.036a6.161,6.161,0,0,0-6.173,6.135v39.7a6.161,6.161,0,0,0,6.173,6.135h89.735a6.161,6.161,0,0,0,6.172-6.135v-39.7a6.161,6.161,0,0,0-6.172-6.135Z" transform="translate(-1438.607 -2232.086)" fill="#3fb1b5"/>
      <path id="路径_185" data-name="路径 185" d="M1698.9,1979.191a.534.534,0,0,1-.535-.532,5.216,5.216,0,0,0-5.227-5.2H1667.9a5.217,5.217,0,0,0-5.227,5.2.535.535,0,0,1-1.07,0,6.287,6.287,0,0,1,6.3-6.26h25.244a6.287,6.287,0,0,1,6.3,6.26A.534.534,0,0,1,1698.9,1979.191Z" transform="translate(-1591.507 -1939.295)" fill="#3fb1b5"/>
      <path id="路径_186" data-name="路径 186" d="M1698.9,2447.891a.534.534,0,0,1-.535-.532,5.216,5.216,0,0,0-5.227-5.2H1667.9a5.216,5.216,0,0,0-5.227,5.2.535.535,0,0,1-1.07,0,6.287,6.287,0,0,1,6.3-6.259h25.244a6.287,6.287,0,0,1,6.3,6.259A.534.534,0,0,1,1698.9,2447.891Z" transform="translate(-1591.507 -2324.885)" fill="#3fb1b5"/>
      <rect id="矩形_5" data-name="矩形 5" width="13.255" height="219.397" transform="translate(442.021 3.635)" fill="#fff"/>
      <path id="路径_187" data-name="路径 187" d="M3757.726,2023.661H3743.4V1803.2h14.325Zm-13.255-1.064h12.184V1804.264h-12.184Z" transform="translate(-3301.915 -1800.097)" fill="#3fb1b5"/>
      <path id="路径_188" data-name="路径 188" d="M2832.162,3041.564H2555.535a.532.532,0,1,1,0-1.064h276.627a.532.532,0,1,1,0,1.064Z" transform="translate(-2325.525 -2818)" fill="#3fb1b5"/>
    </g>
    <g id="PLANT" transform="translate(89.859 151.365)">
      <path id="路径_189" data-name="路径 189" d="M1435.251,1356.883h-8.01s-11.435-47.362-21.479-48.9-10.561,16.686-10.561,16.686.178-27.715,25.279-23.92S1435.251,1356.883,1435.251,1356.883Z" transform="translate(-1394.663 -1299.857)" fill="#fff"/>
      <path id="路径_190" data-name="路径 190" d="M1433.243,1354.956h-8.874l-.1-.408c-.028-.119-2.9-11.96-6.958-23.834-6.713-19.633-11.362-24.252-14.079-24.669a5.9,5.9,0,0,0-4.858,1.281c-4.72,3.9-5.082,14.785-5.086,14.895l-1.07-.018a34.85,34.85,0,0,1,1.083-7.539c.972-3.853,3.043-9.221,7.386-12.905,4.4-3.736,10.265-5.08,17.426-4a16.324,16.324,0,0,1,11.2,7.027c4.5,6.362,6.544,16.668,6.065,30.655a134.392,134.392,0,0,1-2.057,19.086Zm-8.028-1.064h7.136a135.609,135.609,0,0,0,1.962-18.5c.319-9.442-.44-22.312-5.876-29.992a15.242,15.242,0,0,0-10.488-6.586c-6.838-1.034-12.411.227-16.566,3.75a18.347,18.347,0,0,0-3.211,3.575,6.926,6.926,0,0,1,5.22-1.142c4.378.672,9.4,9.221,14.93,25.385,3.652,10.675,6.348,21.323,6.891,23.513Z" transform="translate(-1392.215 -1297.398)" fill="#3fb1b5"/>
      <path id="路径_191" data-name="路径 191" d="M1487.407,1359.671a.533.533,0,0,1-.535-.532c-.583-35.265-8.1-47.728-14.3-51.971-4.706-3.222-8.742-1.824-8.906-1.762a.536.536,0,0,1-.675-.32.531.531,0,0,1,.306-.678c.189-.069,4.678-1.656,9.848,1.86,4,2.724,7.263,7.733,9.689,14.895,3.125,9.22,4.843,21.988,5.107,37.962a.533.533,0,0,1-.535.532Z" transform="translate(-1450.334 -1302.823)" fill="#3fb1b5"/>
      <rect id="矩形_6" data-name="矩形 6" width="37.624" height="30.446" transform="translate(24.781 56.317)" fill="#fe5244"/>
      <path id="路径_192" data-name="路径 192" d="M1649.438,1524.764a9.995,9.995,0,0,1-7.9-.248,13.735,13.735,0,0,1-5.316-4.167,17.322,17.322,0,0,1-3.461-10.816h0c0-10.958-8.777-17.839-12.381-3.334-.25,1.011-.482,2.11-.678,3.334v-.107h0a.446.446,0,0,1,.018-.142v-.071a42.544,42.544,0,0,1,1.16-6.809,32.1,32.1,0,0,1,2.872-7.518,19.14,19.14,0,0,1,2.39-3.44,12.993,12.993,0,0,1,10.151-4.646c8.242,0,14.272,9.646,16.573,19.257C1654.879,1514.409,1654.058,1522.76,1649.438,1524.764Z" transform="translate(-1579.111 -1453.215)" fill="#fff"/>
      <path id="路径_193" data-name="路径 193" d="M1643.433,1523.546a11.652,11.652,0,0,1-4.61-.986,14.3,14.3,0,0,1-5.53-4.328,17.915,17.915,0,0,1-3.568-11.143c0-6.206-2.854-10.71-5.516-11.033-2.385-.287-4.5,2.564-5.811,7.827-.271,1.1-.489,2.172-.669,3.289l-1.07-.083v-.106a1.012,1.012,0,0,1,.018-.206v-.042a42.857,42.857,0,0,1,1.174-6.9,32.474,32.474,0,0,1,2.922-7.642,19.407,19.407,0,0,1,2.458-3.536,13.5,13.5,0,0,1,10.552-4.827c8.563,0,14.75,9.877,17.094,19.666a31.781,31.781,0,0,1,.783,11.939c-.6,3.805-2.159,6.355-4.515,7.378h0a9.4,9.4,0,0,1-3.712.732Zm-19.508-28.57a3.329,3.329,0,0,1,.414.025c3.568.429,6.456,5.852,6.456,12.088a16.866,16.866,0,0,0,3.349,10.49,13.236,13.236,0,0,0,5.108,4.006,9.516,9.516,0,0,0,7.476.248c3.989-1.732,5.272-9.173,3.117-18.1-2.246-9.382-8.082-18.849-16.056-18.849a12.479,12.479,0,0,0-9.748,4.463,18.452,18.452,0,0,0-2.319,3.348,29.482,29.482,0,0,0-2.3,5.516C1621.046,1495.478,1622.834,1494.976,1623.926,1494.976Zm23.014,27.344Z" transform="translate(-1576.615 -1450.772)" fill="#3fb1b5"/>
      <path id="路径_194" data-name="路径 194" d="M1674.7,1538.417a.534.534,0,0,1-.535-.475c-2.6-24.307-8.538-31.822-13.061-33.847a8.015,8.015,0,0,0-7.47.567.537.537,0,0,1-.545.069.531.531,0,0,1-.076-.934,8.987,8.987,0,0,1,8.529-.672c3.033,1.362,5.679,4.459,7.839,9.207,2.7,5.945,4.672,14.524,5.846,25.5a.533.533,0,0,1-.475.585Z" transform="translate(-1606.283 -1466)" fill="#3fb1b5"/>
      <path id="路径_195" data-name="路径 195" d="M1392.195,1358.87c0,2.926-.339,14.115,10.4,14.629s11.81-15.6,11.81-15.6-5.28-14.257-11.114-15.711C1393.425,1339.72,1392.195,1358.87,1392.195,1358.87Z" transform="translate(-1392.193 -1334.063)" fill="#3fb1b5"/>
      <path id="路径_196" data-name="路径 196" d="M1632.759,1561.245H1619.7C1622.715,1542.467,1632.759,1549.524,1632.759,1561.245Z" transform="translate(-1579.113 -1504.928)" fill="#3fb1b5"/>
    </g>
    <g id="LIGHT" transform="translate(124.505 58.379)">
      <g id="组_10" data-name="组 10" transform="translate(51.789)" opacity="0.4">
        <path id="路径_197" data-name="路径 197" d="M2065.678,784.384V901.433a11.42,11.42,0,0,1-11.451,11.384H1919.445a21.359,21.359,0,0,1-34.413,0l-.018-.018a11.437,11.437,0,0,1-8.313-4.486l3.1-2.66,79.209-67.949,75.427-64.7h19.784A11.431,11.431,0,0,1,2065.678,784.384Z" transform="translate(-1876.7 -773)" fill="#fff"/>
      </g>
      <g id="组_11" data-name="组 11" transform="translate(0 145.827)" opacity="0.4">
        <path id="路径_198" data-name="路径 198" d="M1622.08,1614.639a9.848,9.848,0,0,1-7.9-.248v14.93H1586.4l22.478-19.275,5.317-4.557,4.049-3.475,7.832-6.614C1628.36,1605.082,1627.093,1612.352,1622.08,1614.639Z" transform="translate(-1586.4 -1595.4)" fill="#fff"/>
      </g>
    </g>
    <g id="TRIANGLE" transform="translate(0 2.878)">
      <path id="路径_199" data-name="路径 199" d="M964.5,744.392a.532.532,0,0,1-.178-1.029l1.677-.585a.538.538,0,0,1,.574.052.531.531,0,0,1-.217.941l-1.677.585A.8.8,0,0,1,964.5,744.392Zm4.21-1.454a.531.531,0,0,1-.178-1.028l1.677-.585a.532.532,0,0,1,.357.993l-1.677.585A.636.636,0,0,1,968.707,742.938Zm4.21-1.472a.531.531,0,0,1-.179-1.028l1.677-.585a.538.538,0,0,1,.574.052.531.531,0,0,1-.217.941l-1.677.585A.321.321,0,0,1,972.917,741.466Zm4.21-1.454a.532.532,0,0,1-.179-1.029l1.677-.585a.532.532,0,0,1,.357.993l-1.677.585a.3.3,0,0,1-.178.036Zm4.21-1.454a.531.531,0,0,1-.178-1.028l1.677-.585a.532.532,0,0,1,.357.993l-1.677.585A.293.293,0,0,1,981.337,738.558Zm4.228-1.454a.531.531,0,0,1-.178-1.028l1.677-.585a.538.538,0,0,1,.573.052.531.531,0,0,1-.217.941l-1.677.585A.358.358,0,0,1,985.565,737.1Zm4.21-1.454a.531.531,0,0,1-.178-1.028l1.677-.585a.532.532,0,0,1,.357.993l-1.677.585A.779.779,0,0,1,989.776,735.65Zm4.21-1.454a.531.531,0,0,1-.179-1.028l1.677-.585a.532.532,0,0,1,.357.993l-1.677.585A.791.791,0,0,1,993.986,734.2Zm4.21-1.454a.532.532,0,0,1-.178-1.029l1.677-.585a.536.536,0,0,1,.615.342.531.531,0,0,1-.259.651l-1.677.585A.641.641,0,0,1,998.2,732.742Zm4.21-1.454a.531.531,0,0,1-.178-1.028l1.677-.585a.532.532,0,0,1,.357.993l-1.677.585A.632.632,0,0,1,1002.406,731.288Zm4.21-1.454a.531.531,0,0,1-.178-1.028l1.677-.585a.538.538,0,0,1,.574.052.531.531,0,0,1-.217.941l-1.677.585a.638.638,0,0,1-.178.036Zm4.211-1.472a.532.532,0,0,1-.178-1.029l1.677-.585a.536.536,0,0,1,.615.342.53.53,0,0,1-.258.651l-1.677.585A.294.294,0,0,1,1010.827,728.362Zm4.21-1.454a.531.531,0,0,1-.178-1.028l1.677-.585a.532.532,0,0,1,.357.993l-1.677.585a.294.294,0,0,1-.178.035Zm4.228-1.454a.532.532,0,0,1-.178-1.029l1.677-.585a.532.532,0,0,1,.357.993l-1.677.585a.358.358,0,0,1-.178.035Zm4.21-1.454a.531.531,0,0,1-.179-1.028l1.677-.585a.538.538,0,0,1,.574.052.531.531,0,0,1-.217.941l-1.677.585a.36.36,0,0,1-.178.035Zm4.21-1.454a.531.531,0,0,1-.178-1.029l1.677-.585a.532.532,0,0,1,.357.993l-1.677.585a.358.358,0,0,1-.178.036Zm4.21-1.454a.531.531,0,0,1-.178-1.028l1.677-.585a.532.532,0,0,1,.357.993l-1.677.585A.644.644,0,0,1,1031.9,721.092Zm4.21-1.454a.531.531,0,0,1-.178-1.028l1.677-.585a.538.538,0,0,1,.574.052.531.531,0,0,1-.217.941l-1.677.585a.642.642,0,0,1-.178.036Z" transform="translate(-950.51 -672.223)" fill="#ffcf2d"/>
      <path id="路径_200" data-name="路径 200" d="M1027.121,803.731a.534.534,0,0,1-.535-.532c0-4.805-1.5-8.3-4.478-10.355a9.783,9.783,0,0,0-4.514-1.685.537.537,0,0,1-.368-.181.53.53,0,0,1-.131-.387.517.517,0,0,1,.171-.364.523.523,0,0,1,.382-.133,10.542,10.542,0,0,1,5.031,1.844c4.121,2.837,4.977,7.7,4.977,11.26A.534.534,0,0,1,1027.121,803.731Z" transform="translate(-994.152 -731.562)" fill="#3fb1b5"/>
      <path id="路径_201" data-name="路径 201" d="M1068.645,601.673H964.424a.536.536,0,0,1-.482-.3.514.514,0,0,1,.053-.55l42.352-56.122a.536.536,0,0,1,.375-.213.513.513,0,0,1,.41.142l61.887,56.122a.544.544,0,0,1,.143.585A.571.571,0,0,1,1068.645,601.673Zm-103.151-1.064h101.777l-60.424-54.81Z" transform="translate(-950.438 -529.504)" fill="#3fb1b5"/>
      <path id="路径_202" data-name="路径 202" d="M893.121,845.185a4.593,4.593,0,1,1,4.62-4.593A4.607,4.607,0,0,1,893.121,845.185Zm0-8.139a3.538,3.538,0,1,0,2.511,1.033A3.539,3.539,0,0,0,893.121,837.046Z" transform="translate(-888.5 -769.328)" fill="#ffcf2d"/>
      <rect id="矩形_7" data-name="矩形 7" width="1.07" height="4.061" transform="translate(8.171 71.265)" fill="#ffcf2d"/>
      <path id="路径_203" data-name="路径 203" d="M1200.72,483.385a4.593,4.593,0,1,1,4.621-4.593A4.607,4.607,0,0,1,1200.72,483.385Zm0-8.139a3.568,3.568,0,0,0-3.309,2.177,3.53,3.53,0,0,0,.762,3.871,3.584,3.584,0,0,0,3.89.777,3.542,3.542,0,0,0-1.343-6.824Z" transform="translate(-1141.224 -471.682)" fill="#ffcf2d"/>
      <rect id="矩形_8" data-name="矩形 8" width="1.07" height="11.153" transform="translate(54.84)" fill="#ffcf2d"/>
      <path id="路径_204" data-name="路径 204" d="M1576.521,844.585a4.593,4.593,0,1,1,0-9.185v1.064a3.529,3.529,0,1,0,0,7.057Z" transform="translate(-1449.982 -768.834)" fill="#ffcf2d"/>
    </g>
    <g id="GIRL" transform="translate(213.723 77.356)">
      <g id="GIRL-2" data-name="GIRL">
        <g id="LEGS" transform="translate(66.792 169.655)">
          <g id="RIGHT_LEG" data-name="RIGHT LEG" transform="translate(57.731 55.217)">
            <path id="路径_205" data-name="路径 205" d="M1954.479,1704.34v98.7h-22.942l-14.611-40.553L1896,1704.34Z" transform="translate(-1896 -1704.34)" fill="#a0505a"/>
            <path id="路径_206" data-name="路径 206" d="M1896,1704.34h58.479v31.687l-51.522-12.377Z" transform="translate(-1896 -1704.34)" fill="#73325a"/>
            <path id="路径_207" data-name="路径 207" d="M2935.369,2511.871h-23.854l-15.216-42.23,1.24.679c.028.016,2.992,1.6,9.024,2.383,5.573.724,14.985.887,28.139-2.433l.667-.177Zm-23.1-1.063H2934.3v-39.34c-13.023,3.192-22.375,3.014-27.959,2.281a34.43,34.43,0,0,1-8.131-1.961Z" transform="translate(-2876.354 -2412.642)" fill="#fff"/>
            <path id="路径_208" data-name="路径 208" d="M2954.24,2503.842a3.121,3.121,0,1,1,3.14-3.121A3.131,3.131,0,0,1,2954.24,2503.842Zm0-5.178a2.057,2.057,0,1,0,2.069,2.057A2.063,2.063,0,0,0,2954.24,2498.664Z" transform="translate(-2921.378 -2435.645)" fill="#fff"/>
            <path id="路径_209" data-name="路径 209" d="M3023.84,2550.941a3.121,3.121,0,1,1,3.14-3.121A3.13,3.13,0,0,1,3023.84,2550.941Zm0-5.177a2.057,2.057,0,1,0,2.07,2.057A2.063,2.063,0,0,0,3023.84,2545.764Z" transform="translate(-2978.562 -2474.393)" fill="#fff"/>
            <path id="路径_210" data-name="路径 210" d="M3075.64,2498.641a3.121,3.121,0,1,1,3.14-3.121A3.13,3.13,0,0,1,3075.64,2498.641Zm0-5.178a2.057,2.057,0,1,0,2.069,2.057A2.064,2.064,0,0,0,3075.64,2493.463Z" transform="translate(-3021.121 -2431.367)" fill="#fff"/>
            <path id="路径_211" data-name="路径 211" d="M3055.14,2605.742a3.121,3.121,0,1,1,3.14-3.121A3.131,3.131,0,0,1,3055.14,2605.742Zm0-5.178a2.057,2.057,0,1,0,2.069,2.057A2.064,2.064,0,0,0,3055.14,2600.564Z" transform="translate(-3004.278 -2519.476)" fill="#fff"/>
            <path id="路径_212" data-name="路径 212" d="M2968.84,2579.142a3.121,3.121,0,1,1,3.14-3.121A3.131,3.131,0,0,1,2968.84,2579.142Zm0-5.178a2.057,2.057,0,1,0,2.069,2.057A2.064,2.064,0,0,0,2968.84,2573.964Z" transform="translate(-2933.374 -2497.593)" fill="#fff"/>
            <path id="路径_213" data-name="路径 213" d="M2992.64,2659.142a3.121,3.121,0,1,1,3.139-3.121A3.13,3.13,0,0,1,2992.64,2659.142Zm0-5.178a2.057,2.057,0,1,0,2.069,2.057A2.063,2.063,0,0,0,2992.64,2653.964Z" transform="translate(-2952.928 -2563.407)" fill="#fff"/>
            <path id="路径_214" data-name="路径 214" d="M2916.087,2683.47l-15.734,32.468a14.241,14.241,0,0,1-13.113,8.635h-20.07a6.978,6.978,0,0,1-6.3-9.895l20.177-48.373a15.239,15.239,0,0,1,14.236-9.806c4.388,0,8.741,2.961,11.631,6.241l6.993,7.5A12.531,12.531,0,0,1,2916.087,2683.47Z" transform="translate(-2846.761 -2566.369)" fill="#66b0f0"/>
            <path id="路径_215" data-name="路径 215" d="M2924.648,2744.514l-15.735,32.467a14.24,14.24,0,0,1-13.112,8.635h-21.337c-1.981,0-3.1-1.223-3.765-2.908h4.745a14.241,14.241,0,0,0,13.113-8.636l18.143-37.609a10.232,10.232,0,0,1,9.205-5.763,9.774,9.774,0,0,1,9.723,8.44A12.556,12.556,0,0,1,2924.648,2744.514Z" transform="translate(-2855.322 -2627.412)" fill="#fff"/>
            <path id="路径_216" data-name="路径 216" d="M2893.332,2783.68H2872c-1.984,0-3.418-1.092-4.264-3.247a.53.53,0,0,1,.057-.494.536.536,0,0,1,.442-.231h4.745a13.688,13.688,0,0,0,12.62-8.311.035.035,0,0,1,.009-.023l18.143-37.61a10.813,10.813,0,0,1,9.689-6.064,10.345,10.345,0,0,1,10.252,8.893v.058a13.045,13.045,0,0,1-1.022,5.6l-.013.024-15.729,32.45A14.755,14.755,0,0,1,2893.332,2783.68Zm-24.262-2.908a3.121,3.121,0,0,0,2.933,1.844h21.336a13.685,13.685,0,0,0,12.619-8.311l.012-.023,15.727-32.449a11.946,11.946,0,0,0,.937-5.106,9.288,9.288,0,0,0-9.189-7.958,9.731,9.731,0,0,0-8.722,5.461l-18.139,37.592a14.755,14.755,0,0,1-13.607,8.949Z" transform="translate(-2852.854 -2624.944)" fill="#66b0f0"/>
            <path id="路径_217" data-name="路径 217" d="M2913.468,2712.037a13.69,13.69,0,0,0-6.172-1.773,10.084,10.084,0,0,0-9.045,5.656l-18.785,38.94a15.251,15.251,0,0,1-14.075,9.256h-3.461a6.95,6.95,0,0,1-.428-1.064h3.889a14.2,14.2,0,0,0,13.094-8.618l.018-.018,18.8-38.957a11.144,11.144,0,0,1,10.008-6.259,14.488,14.488,0,0,1,4.371.922Z" transform="translate(-2847.764 -2609.724)" fill="#fff"/>
          </g>
          <g id="LEFT_LEG" data-name="LEFT LEG">
            <path id="路径_218" data-name="路径 218" d="M2518.625,1892.017l-4.479,58.143-2,26.048s-13.041,14.434-27.884,5.532l-6.869-31.563-15.717-72.222a34.25,34.25,0,0,1,29.1-41.156Z" transform="translate(-2460.893 -1836.8)" fill="#a0505a"/>
            <path id="路径_219" data-name="路径 219" d="M2567.039,2508.328a19.8,19.8,0,0,1-10.317-2.962l-.2-.119-7.1-33.377.864.259c16.9,5.037,36.265.028,36.459-.023l.726-.191L2585.4,2499.6l-.123.134a30.515,30.515,0,0,1-8.538,6.228A22.268,22.268,0,0,1,2567.039,2508.328Zm-9.566-3.754c5.922,3.473,12.236,3.623,18.767.447a30.3,30.3,0,0,0,8.122-5.869l1.929-25.839a85.667,85.667,0,0,1-11.267,1.773c-6.257.576-15.446.732-24.186-1.691Z" transform="translate(-2533.626 -2359.26)" fill="#fff"/>
            <path id="路径_220" data-name="路径 220" d="M2630.04,2540.842a3.121,3.121,0,1,1,3.139-3.121A3.131,3.131,0,0,1,2630.04,2540.842Zm0-5.177a2.057,2.057,0,1,0,2.069,2.057A2.063,2.063,0,0,0,2630.04,2535.664Z" transform="translate(-2597.284 -2410.867)" fill="#fff"/>
            <path id="路径_221" data-name="路径 221" d="M2722.84,2518.441a3.121,3.121,0,1,1,3.14-3.12,3.131,3.131,0,0,1-3.14,3.12Zm0-5.178a2.057,2.057,0,1,0,2.07,2.058A2.064,2.064,0,0,0,2722.84,2513.263Z" transform="translate(-2673.529 -2392.438)" fill="#fff"/>
            <path id="路径_222" data-name="路径 222" d="M2574.04,2498.641a3.121,3.121,0,1,1,3.14-3.121A3.13,3.13,0,0,1,2574.04,2498.641Zm0-5.178a2.057,2.057,0,1,0,2.069,2.057A2.063,2.063,0,0,0,2574.04,2493.463Z" transform="translate(-2551.275 -2376.149)" fill="#fff"/>
            <path id="路径_223" data-name="路径 223" d="M2615.44,2620.342a3.121,3.121,0,1,1,3.14-3.121A3.13,3.13,0,0,1,2615.44,2620.342Zm0-5.178a2.057,2.057,0,1,0,2.069,2.057A2.063,2.063,0,0,0,2615.44,2615.164Z" transform="translate(-2585.289 -2476.27)" fill="#fff"/>
            <path id="路径_224" data-name="路径 224" d="M2683.54,2591.142a3.121,3.121,0,1,1,3.14-3.121A3.13,3.13,0,0,1,2683.54,2591.142Zm0-5.178a2.057,2.057,0,1,0,2.07,2.057,2.063,2.063,0,0,0-2.07-2.057Z" transform="translate(-2641.24 -2452.248)" fill="#fff"/>
            <path id="路径_225" data-name="路径 225" d="M2636.9,2629.124l-17.2,68.357h-5.423c-.25,0-.482-.018-.732-.035a9.981,9.981,0,0,1-8.438-7.873l-13.309-61.158c14.843,8.92,27.9-5.514,27.9-5.514Z" transform="translate(-2568.446 -2483.51)" fill="#66b0f0"/>
            <path id="路径_226" data-name="路径 226" d="M2736.985,2694.453c3.622-19.008,4.621-33.531-1.623-34.7s-17.358,11.437-20.98,30.446-1.73,35.819,4.514,36.989S2733.364,2713.48,2736.985,2694.453Z" transform="translate(-2667.658 -2513.765)" fill="#fff"/>
            <path id="路径_227" data-name="路径 227" d="M2717.124,2725.316a4.484,4.484,0,0,1-.812-.076c-3.251-.61-5.519-4.965-6.389-12.266-.838-7.041-.323-16.044,1.449-25.346,1.672-8.772,5.082-16.943,9.6-23.007,4.141-5.555,8.628-8.493,12-7.862,3.242.608,4.86,4.255,4.948,11.171.071,5.639-.876,13.536-2.9,24.146a90.848,90.848,0,0,1-6.244,20.351c-2.627,5.765-5.495,9.811-8.288,11.7A6.015,6.015,0,0,1,2717.124,2725.316Zm14.917-67.578c-2.854,0-6.686,2.793-10.206,7.517-4.427,5.938-7.769,13.955-9.41,22.572-1.754,9.2-2.264,18.086-1.437,25.022.8,6.7,2.811,10.836,5.53,11.348a4.561,4.561,0,0,0,3.39-.939c5.479-3.7,11.268-16.6,14.077-31.37h0c2.009-10.538,2.949-18.366,2.879-23.938-.08-6.24-1.45-9.654-4.076-10.145A4.022,4.022,0,0,0,2732.041,2657.738Z" transform="translate(-2665.174 -2511.295)" fill="#66b0f0"/>
            <path id="路径_228" data-name="路径 228" d="M2694.835,2676.341c-1.874,9.859-2.426,19.381-1.534,26.828.642,5.355,2,9.167,3.854,11.012h-.713c-.25,0-.482-.018-.731-.035-1.677-2.2-2.872-5.887-3.479-10.852-.91-7.536-.357-17.182,1.552-27.147,1.8-9.433,5.441-18.282,10.276-24.931,2.89-3.972,5.923-6.756,8.688-8.015l1.606.532C2707.983,2645.612,2698.314,2658.1,2694.835,2676.341Z" transform="translate(-2650.609 -2500.21)" fill="#fff"/>
          </g>
        </g>
        <g id="SKIRT" transform="translate(95.973 161.303)">
          <path id="路径_229" data-name="路径 229" d="M2628.4,1798.034l81.386-8.334,81.35,22.679-.7,10.745c-1.106,16.952-15.806,30.145-32.9,30.145H2656.266Z" transform="translate(-2627.698 -1789.7)" fill="#fe5244"/>
          <path id="路径_230" data-name="路径 230" d="M2863.313,1945.487H2762.035a.532.532,0,1,1,0-1.064h101.277c7.743,0,15.863-4.069,22.28-11.171,6.089-6.738,9.725-15.152,9.725-22.52a.535.535,0,0,1,1.07,0c0,7.625-3.738,16.314-9.991,23.24C2879.77,1941.29,2871.359,1945.487,2863.313,1945.487Z" transform="translate(-2737.053 -1888.833)" fill="#fff"/>
          <path id="路径_231" data-name="路径 231" d="M2836.441,1922.327h-97.406a.532.532,0,1,1,0-1.064h97.406c14.838,0,27.9-14.749,30.337-27.988a.535.535,0,1,1,1.053.192C2865.315,1907.116,2851.8,1922.327,2836.441,1922.327Z" transform="translate(-2718.156 -1874.539)" fill="#fff"/>
          <path id="路径_232" data-name="路径 232" d="M2804.034,1898.205h-94a.532.532,0,1,1,0-1.064h94c12.845,0,24-11.487,27.97-22.294a.535.535,0,0,1,1.006.365,38.468,38.468,0,0,1-11.284,15.922C2816.209,1895.76,2810.092,1898.205,2804.034,1898.205Z" transform="translate(-2694.33 -1859.461)" fill="#fff"/>
          <path id="路径_233" data-name="路径 233" d="M2778.034,1877.729h-94a.532.532,0,1,1,0-1.064h94c8.847,0,18.129-5.724,24.224-14.939a.537.537,0,0,1,.946.039.53.53,0,0,1-.054.546C2796.862,1871.82,2787.24,1877.729,2778.034,1877.729Z" transform="translate(-2672.968 -1848.736)" fill="#fff"/>
          <path id="路径_234" data-name="路径 234" d="M2753.034,1856.861h-94a.532.532,0,1,1,0-1.064h94c6.808,0,13.674-3.117,19.333-8.779a.537.537,0,0,1,.743.009.53.53,0,0,1,.017.739C2767.265,1853.634,2760.129,1856.861,2753.034,1856.861Z" transform="translate(-2652.428 -1836.735)" fill="#fff"/>
          <path id="路径_235" data-name="路径 235" d="M2726.034,1831.377h-94a.532.532,0,1,1,0-1.064h94a24.4,24.4,0,0,0,12.01-3.353.539.539,0,0,1,.733.2.532.532,0,0,1-.2.729A25.508,25.508,0,0,1,2726.034,1831.377Z" transform="translate(-2630.245 -1820.295)" fill="#fff"/>
          <path id="路径_236" data-name="路径 236" d="M2652.837,1890.074a.536.536,0,0,1-.479-.294l-27.848-55.242a.534.534,0,0,1,.956-.475l27.849,55.235a.531.531,0,0,1-.239.709A.525.525,0,0,1,2652.837,1890.074Z" transform="translate(-2624.465 -1825.973)" fill="#fff"/>
        </g>
        <g id="HANDS" transform="translate(0 96.918)">
          <g id="RIGHT_HAND" data-name="RIGHT HAND" transform="translate(247.208 1.229)">
            <path id="路径_237" data-name="路径 237" d="M3491.35,1447.769c-7.671,2.163-15.218,1.525-16.021-.8-.749-2.217,2.64-6.011,9.509-8.529.338-.124.7-.248,1.053-.372a30.706,30.706,0,0,1,6.083-1.365c5.762-.727,10.453.3,11.043,2.039C3503.82,1441.067,3499.466,1445.482,3491.35,1447.769Z" transform="translate(-3474.687 -1435.948)" fill="#fff"/>
            <path id="路径_238" data-name="路径 238" d="M3479.734,1447.214c-3.894,0-6.836-.862-7.4-2.483-.959-2.837,3.267-6.795,9.83-9.2.338-.124.692-.248,1.047-.371h.02a31.174,31.174,0,0,1,6.19-1.39c5.9-.745,10.9.285,11.614,2.4a3.066,3.066,0,0,1-.344,2.426c-1.136,2.16-4.877,5.364-11.683,7.282A35.086,35.086,0,0,1,3479.734,1447.214Zm13.4-12.634a28.4,28.4,0,0,0-3.581.236,29.992,29.992,0,0,0-5.98,1.341c-.357.126-.714.246-1.039.369a22,22,0,0,0-7.425,4.256c-1.41,1.346-2.068,2.692-1.762,3.6.594,1.715,7.46,2.686,15.367.456h0c6.066-1.708,9.909-4.621,11.029-6.75a2.089,2.089,0,0,0,.279-1.6C3499.709,1435.564,3497.183,1434.58,3493.135,1434.58Z" transform="translate(-3472.2 -1433.53)" fill="#3fb1b5"/>
            <path id="路径_239" data-name="路径 239" d="M3488.364,1501.229h-2.944L3477.7,1449.4v-.036l-.2-1.294c.374-2.358,4.085-5.692,10.633-7.855a31.942,31.942,0,0,1,9.277-1.614l2.818,7.678.268.727,8.92,24.311A22.286,22.286,0,0,1,3488.364,1501.229Z" transform="translate(-3476.554 -1437.701)" fill="#a0505a"/>
            <path id="路径_240" data-name="路径 240" d="M3500.406,1446.828a28.052,28.052,0,0,1-7.189,3.068c-6.636,1.862-13.362,1.1-15.521-.5v-.036l-.2-1.294c.374-2.358,4.085-5.692,10.633-7.855a31.942,31.942,0,0,1,9.277-1.614Z" transform="translate(-3476.554 -1437.701)" fill="#73325a"/>
          </g>
          <g id="LEFT_HAND" data-name="LEFT HAND">
            <path id="路径_241" data-name="路径 241" d="M2249.968,1448.712l-9.366,23.158a30.39,30.39,0,0,1-28.206,18.938H2086.5v-11.455a6.644,6.644,0,0,1,4.318-6.224l12.934-4.876a10.359,10.359,0,0,1,3.657-.674h14.682l83.1-8.334,14.344-32.644Z" transform="translate(-2086.5 -1426.6)" fill="#a0505a"/>
            <path id="路径_242" data-name="路径 242" d="M2087.035,1707.63a.534.534,0,0,1-.535-.532,5.527,5.527,0,0,1,3.609-5.2l9.76-3.672a.537.537,0,0,1,.69.31.531.531,0,0,1-.312.686l-9.758,3.671a4.469,4.469,0,0,0-2.919,4.2A.533.533,0,0,1,2087.035,1707.63Z" transform="translate(-2086.5 -1650.037)" fill="#73325a"/>
            <path id="路径_243" data-name="路径 243" d="M2087.035,1740.63a.534.534,0,0,1-.535-.532,5.527,5.527,0,0,1,3.609-5.2l9.76-3.672a.537.537,0,0,1,.69.31.531.531,0,0,1-.312.686l-9.758,3.671a4.47,4.47,0,0,0-2.919,4.2A.533.533,0,0,1,2087.035,1740.63Z" transform="translate(-2086.5 -1677.185)" fill="#73325a"/>
            <path id="路径_244" data-name="路径 244" d="M2105.354,1767.5a.532.532,0,0,1-.179-1.032l9.758-3.493a.538.538,0,0,1,.552.074.53.53,0,0,1-.2.926l-9.758,3.493A.542.542,0,0,1,2105.354,1767.5Z" transform="translate(-2101.554 -1703.29)" fill="#73325a"/>
            <path id="路径_245" data-name="路径 245" d="M2156.8,1566.863s9.134-23.176,12.06-22.786-8.1,21.3-8.1,21.3Z" transform="translate(-2144.259 -1523.242)" fill="#fe5244"/>
            <path id="路径_246" data-name="路径 246" d="M1934.005,982.84l-2.106,4.77,26.957,31.12,5.584-13.8Z" transform="translate(-1800.972 -982.822)" fill="#73325a"/>
          </g>
        </g>
        <g id="T-SHIRT" transform="translate(125.754 53.865)">
          <path id="路径_247" data-name="路径 247" d="M2914,1239.8l11.06,74.12-81.332-22.679-14.611-42.291-37.714-27.4,13.237-15.675a62.312,62.312,0,0,1,47.615-22.076h26.135a62.239,62.239,0,0,1,54.549,32.155l8.479,14.586s-2.551-3.724-16.306.018C2913,1233.875,2914,1239.8,2914,1239.8Z" transform="translate(-2791.401 -1183.8)" fill="#3fb1b5"/>
          <path id="路径_248" data-name="路径 248" d="M3000.339,1462.917a.46.46,0,0,1-.12-.014.533.533,0,0,1-.4-.636l4.229-18.229a.535.535,0,0,1,1.042.237l-4.228,18.229A.535.535,0,0,1,3000.339,1462.917Z" transform="translate(-2962.625 -1397.575)" fill="#fff"/>
          <path id="路径_249" data-name="路径 249" d="M3463.255,1423.735a.534.534,0,0,1-.535-.447l-13.755-84.989a.535.535,0,0,1,1.056-.177l13.755,84.989a.532.532,0,0,1-.443.61A.48.48,0,0,1,3463.255,1423.735Z" transform="translate(-3331.649 -1310.392)" fill="#fff"/>
          <path id="路径_250" data-name="路径 250" d="M3163.163,1808.839a.524.524,0,0,1-.146-.021l-81.172-23.016a.531.531,0,0,1-.25-.909.539.539,0,0,1,.542-.113l81.172,23.014a.532.532,0,0,1-.146,1.045Z" transform="translate(-3029.685 -1678.19)" fill="#fff"/>
        </g>
        <g id="HEAD-2" data-name="HEAD" transform="translate(166.743)">
          <g id="NECK" transform="translate(15.706 32.729)">
            <path id="路径_251" data-name="路径 251" d="M2220.7,630.032v11.916l21.158-.177V620.74Z" transform="translate(-2220.7 -620.74)" fill="#a0505a"/>
          </g>
          <g id="HEAD-3" data-name="HEAD" transform="translate(0 5.634)">
            <path id="路径_252" data-name="路径 252" d="M3059.738,935.224v.319a5.649,5.649,0,0,1-5.637,5.781h-1.249c-.8,3.156-7.939,6.844-13.005,6.844h-5.905a10.513,10.513,0,0,1-7.991-3.677,10.378,10.378,0,0,1-2.356-8.434l.285-1.72-1.748-.975a1.884,1.884,0,0,1-.589-2.784l3.782-4.965.821-4.894A11.953,11.953,0,0,1,3033,911.8c1.392,15.586,15.235,17.431,18.893,17.643h2.033A5.8,5.8,0,0,1,3059.738,935.224Z" transform="translate(-3021.16 -911.8)" fill="#a0505a"/>
            <path id="路径_253" data-name="路径 253" d="M3182.435,1029.421a.534.534,0,0,1-.535-.532,5.11,5.11,0,0,1,5.12-5.089.532.532,0,1,1,0,1.064,4.041,4.041,0,0,0-4.05,4.025A.533.533,0,0,1,3182.435,1029.421Z" transform="translate(-3153.224 -1003.94)" fill="#73325a"/>
            <ellipse id="椭圆_12" data-name="椭圆 12" cx="0.91" cy="2.092" rx="0.91" ry="2.092" transform="translate(8.963 13.618)" fill="#73325a"/>
            <path id="路径_254" data-name="路径 254" d="M3071.314,965.227a.536.536,0,0,1-.434-.22c-2.346-3.216-4.53-3.087-4.621-3.08a.534.534,0,1,1-.1-1.064c.116-.011,2.854-.234,5.589,3.516a.53.53,0,0,1,.043.554.537.537,0,0,1-.477.29Z" transform="translate(-3057.731 -952.159)" fill="#73325a"/>
          </g>
          <g id="HAIR" transform="translate(11.853)">
            <path id="路径_255" data-name="路径 255" d="M3106.474,903.3h2.033a5.8,5.8,0,0,1,5.816,5.781v.319a5.648,5.648,0,0,1-5.637,5.781l-1.374.957c-5.78,3.688-13.772,18.193-11.81,28.46,2.211,11.543,12.328,14.114,21.676,12.341s16.163-7.181,13.951-18.742a22.935,22.935,0,0,0-1.177-4.078c.16.053.3.107.464.16,11.239,3.05,24.441,3.4,28.081-5.319s2.818-17.36-8.117-21.864c-6.351-2.624-14.986-2.607-21.676-.8,3.371-11.65-2.622-24.612-13.63-25.906-17.286-2.039-27.206,5.054-27.473,5.249h0C3087.581,887.7,3088.991,902.292,3106.474,903.3Z" transform="translate(-3087.599 -880.025)" fill="#73325a"/>
            <path id="路径_256" data-name="路径 256" d="M3277.62,1052.327a.534.534,0,0,1-.526-.432c-1.9-9.843-10-15.259-10.08-15.313a.53.53,0,0,1-.014-.886,24.023,24.023,0,0,0,8.842-12.471.535.535,0,0,1,1.023.312,25.179,25.179,0,0,1-8.643,12.59,26.492,26.492,0,0,1,9.924,15.562.532.532,0,0,1-.083.4.538.538,0,0,1-.343.224A.7.7,0,0,1,3277.62,1052.327Z" transform="translate(-3234.805 -997.522)" fill="#fff"/>
            <path id="路径_257" data-name="路径 257" d="M3323.463,979.314h-4.728a.534.534,0,0,1-.535-.532v-4.7a5.005,5.005,0,0,1,5.013-4.983h.25a5.005,5.005,0,0,1,5.013,4.983v.248a4.88,4.88,0,0,1-1.447,3.505A5.009,5.009,0,0,1,3323.463,979.314Zm-4.192-1.064h4.192a3.948,3.948,0,0,0,2.808-1.161,3.837,3.837,0,0,0,1.134-2.754v-.252a3.934,3.934,0,0,0-3.942-3.919h-.25a3.935,3.935,0,0,0-3.943,3.919Z" transform="translate(-3277.061 -953.305)" fill="#fe5244"/>
            <path id="路径_258" data-name="路径 258" d="M3325.942,1011.482a5.7,5.7,0,0,1-4.829-2.626l-3.033-4.788a.53.53,0,0,1,.168-.734l4.816-3.015a5.721,5.721,0,0,1,7.85,1.763l.283.44a5.654,5.654,0,0,1-1.771,7.813l-.442.282A5.8,5.8,0,0,1,3325.942,1011.482Zm-6.671-7.531,2.748,4.337a4.682,4.682,0,0,0,6.4,1.419l.439-.28a4.583,4.583,0,0,0,1.449-6.334l-.284-.44a4.644,4.644,0,0,0-6.381-1.433Z" transform="translate(-3276.895 -978.273)" fill="#fe5244"/>
            <path id="路径_259" data-name="路径 259" d="M3174.86,1090.286a3.339,3.339,0,0,1-.379-.014,4.968,4.968,0,0,1-3.424-1.718l-.163-.2a4.876,4.876,0,0,1-1.206-3.584,4.967,4.967,0,0,1,1.719-3.431l3.361-3.2a.538.538,0,0,1,.773.032l3.3,3.706a4.955,4.955,0,0,1-.517,7.034l-.2.167A4.974,4.974,0,0,1,3174.86,1090.286Zm.247-10.994-2.969,2.837a.09.09,0,0,0-.019.018,3.9,3.9,0,0,0-1.363,2.709,3.825,3.825,0,0,0,.951,2.814l.011.014.16.195a3.941,3.941,0,0,0,5.55.4l.209-.177a3.893,3.893,0,0,0,.4-5.519Z" transform="translate(-3155.033 -1042.889)" fill="#fe5244"/>
            <path id="路径_260" data-name="路径 260" d="M3204.531,1080.809a5.739,5.739,0,0,1-5.514-4.151h0l-1.517-5.444a.531.531,0,0,1,.373-.654l5.477-1.507a5.717,5.717,0,0,1,4.326.522,5.658,5.658,0,0,1,2.684,3.411l.143.516a5.622,5.622,0,0,1-.525,4.3,5.679,5.679,0,0,1-3.432,2.668l-.519.142A5.721,5.721,0,0,1,3204.531,1080.809Zm-4.483-4.433a4.666,4.666,0,0,0,5.695,3.213l.515-.142a4.584,4.584,0,0,0,3.212-5.656l-.143-.516a4.592,4.592,0,0,0-2.18-2.769,4.639,4.639,0,0,0-3.512-.423l-4.963,1.365Z" transform="translate(-3177.878 -1035.363)" fill="#fe5244"/>
          </g>
        </g>
      </g>
      <g id="CHAIR" transform="translate(119.956 224.34)">
        <path id="路径_261" data-name="路径 261" d="M2759.438,2367.625a.536.536,0,0,1-.523-.644l31.077-144.569a.535.535,0,1,1,1.046.224L2759.96,2367.2A.535.535,0,0,1,2759.438,2367.625Z" transform="translate(-2758.903 -2208.356)" fill="#ffcf2d"/>
        <path id="路径_262" data-name="路径 262" d="M3410.514,2367.625a.534.534,0,0,1-.522-.42l-31.072-144.568a.531.531,0,0,1,.153-.524.536.536,0,0,1,.892.3l31.078,144.569a.532.532,0,0,1-.411.631A.5.5,0,0,1,3410.514,2367.625Z" transform="translate(-3268.295 -2208.357)" fill="#ffcf2d"/>
        <path id="路径_263" data-name="路径 263" d="M2925.52,2857.464H2798.035a.532.532,0,1,1,0-1.064H2925.52a.532.532,0,1,1,0,1.064Z" transform="translate(-2790.615 -2730.29)" fill="#ffcf2d"/>
        <path id="路径_264" data-name="路径 264" d="M2913.809,2161.836H2785.343a2.938,2.938,0,0,1-2.944-2.926v-7.784a2.939,2.939,0,0,1,2.944-2.926h128.465a2.938,2.938,0,0,1,2.944,2.926v7.784A2.938,2.938,0,0,1,2913.809,2161.836Z" transform="translate(-2778.208 -2147.668)" fill="#fff"/>
        <path id="路径_265" data-name="路径 265" d="M2911.344,2159.9H2782.879a3.473,3.473,0,0,1-3.478-3.458v-7.784a3.472,3.472,0,0,1,3.478-3.457h128.466a3.472,3.472,0,0,1,3.479,3.457v7.784A3.473,3.473,0,0,1,2911.344,2159.9Zm-128.466-13.636a2.406,2.406,0,0,0-2.408,2.394v7.784a2.406,2.406,0,0,0,2.408,2.394h128.466a2.4,2.4,0,0,0,2.408-2.394v-7.784a2.4,2.4,0,0,0-2.408-2.394Z" transform="translate(-2775.744 -2145.201)" fill="#66b0f0"/>
      </g>
    </g>
  </g>
</svg>
