<svg id="Icon_awesome-zhihu" data-name="Icon awesome-zhihu" xmlns="http://www.w3.org/2000/svg" width="70" height="31.668" viewBox="0 0 70 31.668">
  <path id="Icon_awesome-zhihu-2" data-name="Icon awesome-zhihu" d="M18.653,11.857V35.65h2.563l.843,2.884,4.595-2.884h5.417V11.857ZM29.344,33.068H26.288l-3.052,1.915-.556-1.911-1.3,0V14.44h7.965ZM16.388,22.744H10.664c.19-2.964.241-5.643.241-8.035h5.6s.215-2.467-.938-2.44H5.882q.573-2.152,1.435-4.448a3.915,3.915,0,0,0-3.53,2.359A66.794,66.794,0,0,1,.43,18.724,4.639,4.639,0,0,0,4.459,16.3c.231-.644.275-.728.562-1.589H8.179c0,1.148-.131,7.315-.184,8.033H2.278c-1.284,0-1.7,2.583-1.7,2.583H7.749A18.943,18.943,0,0,1,0,39a6.232,6.232,0,0,0,5.578-1.083s2.513-2.286,3.893-7.574l5.9,7.1s.865-2.941-.136-4.374c-.829-.976-3.069-3.616-4.024-4.573l-1.6,1.271a19.283,19.283,0,0,0,.861-4.448h6.743s-.01-2.583-.83-2.583Zm45.065-.175c2.278-2.8,4.92-6.406,4.92-6.406s-2.04-1.619-2.995-.444c-.656.891-4.028,5.272-4.028,5.272l2.1,1.578ZM45.036,16.106c-.985-.9-2.834.233-2.834.233s4.323,6.02,4.5,6.284l2.128-1.5A53.52,53.52,0,0,0,45.037,16.1h0ZM70,23.912c-2.163,0-14.318.1-14.335.1V12.967q.789,0,2.5-.131,6.707-.4,9.6-.526S69.1,9.336,67.7,8.652a11.548,11.548,0,0,0-2.534.5s-18.071,1.8-25.414,1.974a2.716,2.716,0,0,0,1.726,2.138c1.456.381,2.482.186,5.376.1q4.074-.263,6.181-.266V24.014h-14.6a2.878,2.878,0,0,0,2.79,2.5H53.032V34.27a2.322,2.322,0,0,1-2.677,2.31c-1.54.012-2.853-.126-4.56-.2a5.026,5.026,0,0,0,2.112,2.389,5.728,5.728,0,0,0,2.846.719c3.233,0,5-1.89,4.91-4.956V26.514H69.045c1.059,0,.952-2.6.952-2.6h0Z" transform="translate(0 -7.821)" fill="#274c77"/>
</svg>
